%TF.GenerationSoftware,KiCad,Pcbnew,8.0.2*%
%TF.CreationDate,2025-05-03T05:30:05-04:00*%
%TF.ProjectId,piezo_nanopositioner_v1,7069657a-6f5f-46e6-916e-6f706f736974,rev?*%
%TF.SameCoordinates,Original*%
%TF.FileFunction,Soldermask,Top*%
%TF.FilePolarity,Negative*%
%FSLAX46Y46*%
G04 Gerber Fmt 4.6, Leading zero omitted, Abs format (unit mm)*
G04 Created by KiCad (PCBNEW 8.0.2) date 2025-05-03 05:30:05*
%MOMM*%
%LPD*%
G01*
G04 APERTURE LIST*
G04 Aperture macros list*
%AMRoundRect*
0 Rectangle with rounded corners*
0 $1 Rounding radius*
0 $2 $3 $4 $5 $6 $7 $8 $9 X,Y pos of 4 corners*
0 Add a 4 corners polygon primitive as box body*
4,1,4,$2,$3,$4,$5,$6,$7,$8,$9,$2,$3,0*
0 Add four circle primitives for the rounded corners*
1,1,$1+$1,$2,$3*
1,1,$1+$1,$4,$5*
1,1,$1+$1,$6,$7*
1,1,$1+$1,$8,$9*
0 Add four rect primitives between the rounded corners*
20,1,$1+$1,$2,$3,$4,$5,0*
20,1,$1+$1,$4,$5,$6,$7,0*
20,1,$1+$1,$6,$7,$8,$9,0*
20,1,$1+$1,$8,$9,$2,$3,0*%
G04 Aperture macros list end*
%ADD10RoundRect,0.250000X0.450000X-0.262500X0.450000X0.262500X-0.450000X0.262500X-0.450000X-0.262500X0*%
%ADD11RoundRect,0.250000X0.475000X-0.250000X0.475000X0.250000X-0.475000X0.250000X-0.475000X-0.250000X0*%
%ADD12C,2.006600*%
%ADD13C,1.905000*%
%ADD14RoundRect,0.250000X-0.475000X0.250000X-0.475000X-0.250000X0.475000X-0.250000X0.475000X0.250000X0*%
%ADD15RoundRect,0.102000X0.634000X0.634000X-0.634000X0.634000X-0.634000X-0.634000X0.634000X-0.634000X0*%
%ADD16C,1.472000*%
%ADD17C,0.800000*%
%ADD18C,6.400000*%
%ADD19R,0.558800X1.447800*%
%ADD20R,1.500000X0.599999*%
%ADD21RoundRect,0.250000X-0.450000X0.262500X-0.450000X-0.262500X0.450000X-0.262500X0.450000X0.262500X0*%
%ADD22R,3.810000X1.168400*%
%ADD23R,3.606800X1.803400*%
%ADD24RoundRect,0.250000X0.250000X0.475000X-0.250000X0.475000X-0.250000X-0.475000X0.250000X-0.475000X0*%
%ADD25C,4.250000*%
%ADD26R,1.625600X1.625600*%
%ADD27C,1.625600*%
%ADD28R,1.700000X1.700000*%
%ADD29O,1.700000X1.700000*%
%ADD30C,1.371600*%
%ADD31C,1.600200*%
%ADD32RoundRect,0.250000X-0.262500X-0.450000X0.262500X-0.450000X0.262500X0.450000X-0.262500X0.450000X0*%
%ADD33R,1.800000X1.800000*%
%ADD34O,1.800000X1.800000*%
G04 APERTURE END LIST*
D10*
%TO.C,R203*%
X93020000Y-101590000D03*
X93020000Y-99765000D03*
%TD*%
D11*
%TO.C,C407*%
X188570000Y-80340000D03*
X188570000Y-78440000D03*
%TD*%
D12*
%TO.C,J402*%
X202458100Y-49190300D03*
D13*
X199905400Y-46637600D03*
X199905400Y-51743000D03*
X205010800Y-51743000D03*
X205010800Y-46637600D03*
%TD*%
D14*
%TO.C,C203*%
X95170000Y-86140000D03*
X95170000Y-88040000D03*
%TD*%
D12*
%TO.C,J202*%
X98758100Y-49190300D03*
D13*
X96205400Y-46637600D03*
X96205400Y-51743000D03*
X101310800Y-51743000D03*
X101310800Y-46637600D03*
%TD*%
D14*
%TO.C,C404*%
X207870000Y-86240000D03*
X207870000Y-88140000D03*
%TD*%
D15*
%TO.C,RV201*%
X119710000Y-91090000D03*
D16*
X117170000Y-91090000D03*
X114630000Y-91090000D03*
%TD*%
D14*
%TO.C,C403*%
X198870000Y-86240000D03*
X198870000Y-88140000D03*
%TD*%
D17*
%TO.C,H5*%
X122300000Y-49200000D03*
X123002944Y-47502944D03*
X123002944Y-50897056D03*
X124700000Y-46800000D03*
D18*
X124700000Y-49200000D03*
D17*
X124700000Y-51600000D03*
X126397056Y-47502944D03*
X126397056Y-50897056D03*
X127100000Y-49200000D03*
%TD*%
D10*
%TO.C,R402*%
X194220000Y-101690000D03*
X194220000Y-99865000D03*
%TD*%
%TO.C,R207*%
X103020000Y-101590000D03*
X103020000Y-99765000D03*
%TD*%
D15*
%TO.C,RV401*%
X223410000Y-91190000D03*
D16*
X220870000Y-91190000D03*
X218330000Y-91190000D03*
%TD*%
D19*
%TO.C,U202*%
X101290000Y-91129000D03*
X100020000Y-91129000D03*
X98750000Y-91129000D03*
X97480000Y-91129000D03*
X96210000Y-91129000D03*
X94940000Y-91129000D03*
X93670000Y-91129000D03*
X92400000Y-91129000D03*
X92400000Y-96590000D03*
X93670000Y-96590000D03*
X94940000Y-96590000D03*
X96210000Y-96590000D03*
X97480000Y-96590000D03*
X98750000Y-96590000D03*
X100020000Y-96590000D03*
X101290000Y-96590000D03*
%TD*%
D11*
%TO.C,C207*%
X84870000Y-80240000D03*
X84870000Y-78340000D03*
%TD*%
D20*
%TO.C,U401*%
X220370000Y-99839999D03*
X220370000Y-97940000D03*
X218470001Y-98889998D03*
%TD*%
D21*
%TO.C,R209*%
X118920001Y-97877498D03*
X118920001Y-99702498D03*
%TD*%
D10*
%TO.C,R302*%
X142370000Y-101640000D03*
X142370000Y-99815000D03*
%TD*%
D22*
%TO.C,C401*%
X217617200Y-106490000D03*
X224322800Y-106490000D03*
%TD*%
D11*
%TO.C,C408*%
X186120000Y-80340000D03*
X186120000Y-78440000D03*
%TD*%
D14*
%TO.C,C303*%
X147020000Y-86190000D03*
X147020000Y-88090000D03*
%TD*%
D10*
%TO.C,R407*%
X206720000Y-101690000D03*
X206720000Y-99865000D03*
%TD*%
D11*
%TO.C,C209*%
X106370000Y-88040000D03*
X106370000Y-86140000D03*
%TD*%
D15*
%TO.C,RV301*%
X171560000Y-91140000D03*
D16*
X169020000Y-91140000D03*
X166480000Y-91140000D03*
%TD*%
D10*
%TO.C,R308*%
X157370000Y-101640000D03*
X157370000Y-99815000D03*
%TD*%
%TO.C,R304*%
X147370000Y-101640000D03*
X147370000Y-99815000D03*
%TD*%
D23*
%TO.C,C306*%
X164714700Y-79640000D03*
X173325300Y-79640000D03*
%TD*%
D10*
%TO.C,R202*%
X90520000Y-101590000D03*
X90520000Y-99765000D03*
%TD*%
D24*
%TO.C,C410*%
X210908100Y-50690300D03*
X209008100Y-50690300D03*
%TD*%
%TO.C,C210*%
X107208100Y-50590300D03*
X105308100Y-50590300D03*
%TD*%
D11*
%TO.C,C202*%
X97420000Y-88040000D03*
X97420000Y-86140000D03*
%TD*%
D10*
%TO.C,R303*%
X144870000Y-101640000D03*
X144870000Y-99815000D03*
%TD*%
D17*
%TO.C,H1*%
X72850000Y-48500000D03*
X73552944Y-46802944D03*
X73552944Y-50197056D03*
X75250000Y-46100000D03*
D18*
X75250000Y-48500000D03*
D17*
X75250000Y-50900000D03*
X76947056Y-46802944D03*
X76947056Y-50197056D03*
X77650000Y-48500000D03*
%TD*%
D10*
%TO.C,R312*%
X139220000Y-80252500D03*
X139220000Y-78427500D03*
%TD*%
%TO.C,R401*%
X191720000Y-101690000D03*
X191720000Y-99865000D03*
%TD*%
%TO.C,R301*%
X139870000Y-101640000D03*
X139870000Y-99815000D03*
%TD*%
D25*
%TO.C,Heatsink*%
X188170000Y-68190000D03*
X213570000Y-68190000D03*
%TD*%
D26*
%TO.C,D101*%
X235500000Y-72750000D03*
D27*
X235500000Y-83926000D03*
%TD*%
D28*
%TO.C,J401*%
X189045000Y-108865000D03*
D29*
X191585000Y-108865000D03*
X194125000Y-108865000D03*
X196665000Y-108865000D03*
X199205000Y-108865000D03*
X201745000Y-108865000D03*
X204285000Y-108865000D03*
X206825000Y-108865000D03*
X209365000Y-108865000D03*
X211905000Y-108865000D03*
%TD*%
D17*
%TO.C,H3*%
X250100000Y-110750000D03*
X250802944Y-109052944D03*
X250802944Y-112447056D03*
X252500000Y-108350000D03*
D18*
X252500000Y-110750000D03*
D17*
X252500000Y-113150000D03*
X254197056Y-109052944D03*
X254197056Y-112447056D03*
X254900000Y-110750000D03*
%TD*%
D25*
%TO.C,Heatsink*%
X84470000Y-68090000D03*
X109870000Y-68090000D03*
%TD*%
D11*
%TO.C,C309*%
X158220000Y-88090000D03*
X158220000Y-86190000D03*
%TD*%
D17*
%TO.C,H2*%
X72850000Y-110750000D03*
X73552944Y-109052944D03*
X73552944Y-112447056D03*
X75250000Y-108350000D03*
D18*
X75250000Y-110750000D03*
D17*
X75250000Y-113150000D03*
X76947056Y-109052944D03*
X76947056Y-112447056D03*
X77650000Y-110750000D03*
%TD*%
D10*
%TO.C,R405*%
X201720000Y-101690000D03*
X201720000Y-99865000D03*
%TD*%
%TO.C,R212*%
X87370000Y-80202500D03*
X87370000Y-78377500D03*
%TD*%
D20*
%TO.C,U301*%
X168520000Y-99789999D03*
X168520000Y-97890000D03*
X166620001Y-98839998D03*
%TD*%
D28*
%TO.C,J201*%
X85345000Y-108765000D03*
D29*
X87885000Y-108765000D03*
X90425000Y-108765000D03*
X92965000Y-108765000D03*
X95505000Y-108765000D03*
X98045000Y-108765000D03*
X100585000Y-108765000D03*
X103125000Y-108765000D03*
X105665000Y-108765000D03*
X108205000Y-108765000D03*
%TD*%
D22*
%TO.C,C301*%
X165767200Y-106440000D03*
X172472800Y-106440000D03*
%TD*%
D28*
%TO.C,J301*%
X137195000Y-108815000D03*
D29*
X139735000Y-108815000D03*
X142275000Y-108815000D03*
X144815000Y-108815000D03*
X147355000Y-108815000D03*
X149895000Y-108815000D03*
X152435000Y-108815000D03*
X154975000Y-108815000D03*
X157515000Y-108815000D03*
X160055000Y-108815000D03*
%TD*%
D10*
%TO.C,R307*%
X154870000Y-101640000D03*
X154870000Y-99815000D03*
%TD*%
D23*
%TO.C,C206*%
X112864700Y-79590000D03*
X121475300Y-79590000D03*
%TD*%
D11*
%TO.C,C308*%
X134270000Y-80290000D03*
X134270000Y-78390000D03*
%TD*%
D26*
%TO.C,D102*%
X235500000Y-97860500D03*
D27*
X235500000Y-109036500D03*
%TD*%
D10*
%TO.C,R404*%
X199220000Y-101690000D03*
X199220000Y-99865000D03*
%TD*%
D25*
%TO.C,Heatsink*%
X136320000Y-68140000D03*
X161720000Y-68140000D03*
%TD*%
D19*
%TO.C,U402*%
X204990000Y-91229000D03*
X203720000Y-91229000D03*
X202450000Y-91229000D03*
X201180000Y-91229000D03*
X199910000Y-91229000D03*
X198640000Y-91229000D03*
X197370000Y-91229000D03*
X196100000Y-91229000D03*
X196100000Y-96690000D03*
X197370000Y-96690000D03*
X198640000Y-96690000D03*
X199910000Y-96690000D03*
X201180000Y-96690000D03*
X202450000Y-96690000D03*
X203720000Y-96690000D03*
X204990000Y-96690000D03*
%TD*%
D22*
%TO.C,C201*%
X113917200Y-106390000D03*
X120622800Y-106390000D03*
%TD*%
D10*
%TO.C,R204*%
X95520000Y-101590000D03*
X95520000Y-99765000D03*
%TD*%
D30*
%TO.C,C101*%
X244000000Y-72750000D03*
X244000000Y-76250001D03*
%TD*%
D10*
%TO.C,R306*%
X152370000Y-101640000D03*
X152370000Y-99815000D03*
%TD*%
%TO.C,R403*%
X196720000Y-101690000D03*
X196720000Y-99865000D03*
%TD*%
D11*
%TO.C,C208*%
X82420000Y-80240000D03*
X82420000Y-78340000D03*
%TD*%
D31*
%TO.C,J101*%
X253000000Y-85920000D03*
X253000000Y-91000000D03*
X253000000Y-96080000D03*
%TD*%
D10*
%TO.C,R201*%
X88020000Y-101590000D03*
X88020000Y-99765000D03*
%TD*%
D21*
%TO.C,R309*%
X170770001Y-97927498D03*
X170770001Y-99752498D03*
%TD*%
D30*
%TO.C,C102*%
X244000000Y-105499999D03*
X244000000Y-109000000D03*
%TD*%
D20*
%TO.C,U201*%
X116670000Y-99739999D03*
X116670000Y-97840000D03*
X114770001Y-98789998D03*
%TD*%
D10*
%TO.C,R406*%
X204220000Y-101690000D03*
X204220000Y-99865000D03*
%TD*%
D11*
%TO.C,C402*%
X201120000Y-88140000D03*
X201120000Y-86240000D03*
%TD*%
D10*
%TO.C,R408*%
X209220000Y-101690000D03*
X209220000Y-99865000D03*
%TD*%
D11*
%TO.C,C307*%
X136720000Y-80290000D03*
X136720000Y-78390000D03*
%TD*%
D32*
%TO.C,R313*%
X157195600Y-48140300D03*
X159020600Y-48140300D03*
%TD*%
D17*
%TO.C,H6*%
X174100000Y-49200000D03*
X174802944Y-47502944D03*
X174802944Y-50897056D03*
X176500000Y-46800000D03*
D18*
X176500000Y-49200000D03*
D17*
X176500000Y-51600000D03*
X178197056Y-47502944D03*
X178197056Y-50897056D03*
X178900000Y-49200000D03*
%TD*%
D10*
%TO.C,R410*%
X203370000Y-88102500D03*
X203370000Y-86277500D03*
%TD*%
%TO.C,R206*%
X100520000Y-101590000D03*
X100520000Y-99765000D03*
%TD*%
D21*
%TO.C,R409*%
X222620001Y-97977498D03*
X222620001Y-99802498D03*
%TD*%
D10*
%TO.C,R305*%
X149870000Y-101640000D03*
X149870000Y-99815000D03*
%TD*%
D33*
%TO.C,U203*%
X93658100Y-79590300D03*
D34*
X95358100Y-75890300D03*
X97058100Y-79590300D03*
X98758100Y-75890300D03*
X100458100Y-79590300D03*
%TD*%
D19*
%TO.C,U302*%
X153140000Y-91179000D03*
X151870000Y-91179000D03*
X150600000Y-91179000D03*
X149330000Y-91179000D03*
X148060000Y-91179000D03*
X146790000Y-91179000D03*
X145520000Y-91179000D03*
X144250000Y-91179000D03*
X144250000Y-96640000D03*
X145520000Y-96640000D03*
X146790000Y-96640000D03*
X148060000Y-96640000D03*
X149330000Y-96640000D03*
X150600000Y-96640000D03*
X151870000Y-96640000D03*
X153140000Y-96640000D03*
%TD*%
D23*
%TO.C,C405*%
X190644050Y-88140000D03*
X182033450Y-88140000D03*
%TD*%
D32*
%TO.C,R413*%
X209045600Y-48190300D03*
X210870600Y-48190300D03*
%TD*%
D10*
%TO.C,R311*%
X153770000Y-88052500D03*
X153770000Y-86227500D03*
%TD*%
D24*
%TO.C,C310*%
X159058100Y-50640300D03*
X157158100Y-50640300D03*
%TD*%
D10*
%TO.C,R208*%
X105520000Y-101590000D03*
X105520000Y-99765000D03*
%TD*%
D17*
%TO.C,H4*%
X250100000Y-48500000D03*
X250802944Y-46802944D03*
X250802944Y-50197056D03*
X252500000Y-46100000D03*
D18*
X252500000Y-48500000D03*
D17*
X252500000Y-50900000D03*
X254197056Y-46802944D03*
X254197056Y-50197056D03*
X254900000Y-48500000D03*
%TD*%
D33*
%TO.C,U403*%
X197358100Y-79690300D03*
D34*
X199058100Y-75990300D03*
X200758100Y-79690300D03*
X202458100Y-75990300D03*
X204158100Y-79690300D03*
%TD*%
D14*
%TO.C,C304*%
X156020000Y-86190000D03*
X156020000Y-88090000D03*
%TD*%
D10*
%TO.C,R211*%
X101920000Y-88002500D03*
X101920000Y-86177500D03*
%TD*%
D14*
%TO.C,C204*%
X104170000Y-86140000D03*
X104170000Y-88040000D03*
%TD*%
D12*
%TO.C,J302*%
X150608100Y-49190300D03*
D13*
X148055400Y-46637600D03*
X148055400Y-51743000D03*
X153160800Y-51743000D03*
X153160800Y-46637600D03*
%TD*%
D10*
%TO.C,R210*%
X99670000Y-88002500D03*
X99670000Y-86177500D03*
%TD*%
D11*
%TO.C,C409*%
X210070000Y-88140000D03*
X210070000Y-86240000D03*
%TD*%
D33*
%TO.C,U303*%
X145508100Y-79640300D03*
D34*
X147208100Y-75940300D03*
X148908100Y-79640300D03*
X150608100Y-75940300D03*
X152308100Y-79640300D03*
%TD*%
D10*
%TO.C,R310*%
X151520000Y-88052500D03*
X151520000Y-86227500D03*
%TD*%
D32*
%TO.C,R213*%
X105345600Y-48090300D03*
X107170600Y-48090300D03*
%TD*%
D10*
%TO.C,R205*%
X98020000Y-101590000D03*
X98020000Y-99765000D03*
%TD*%
D11*
%TO.C,C302*%
X149270000Y-88090000D03*
X149270000Y-86190000D03*
%TD*%
D23*
%TO.C,C305*%
X138794050Y-88090000D03*
X130183450Y-88090000D03*
%TD*%
D10*
%TO.C,R411*%
X205620000Y-88102500D03*
X205620000Y-86277500D03*
%TD*%
D23*
%TO.C,C406*%
X216564700Y-79690000D03*
X225175300Y-79690000D03*
%TD*%
%TO.C,C205*%
X86944050Y-88040000D03*
X78333450Y-88040000D03*
%TD*%
D10*
%TO.C,R412*%
X191070000Y-80302500D03*
X191070000Y-78477500D03*
%TD*%
M02*
