%TF.GenerationSoftware,KiCad,Pcbnew,8.0.2*%
%TF.CreationDate,2025-05-03T05:30:05-04:00*%
%TF.ProjectId,piezo_nanopositioner_v1,7069657a-6f5f-46e6-916e-6f706f736974,rev?*%
%TF.SameCoordinates,Original*%
%TF.FileFunction,Copper,L3,Inr*%
%TF.FilePolarity,Positive*%
%FSLAX46Y46*%
G04 Gerber Fmt 4.6, Leading zero omitted, Abs format (unit mm)*
G04 Created by KiCad (PCBNEW 8.0.2) date 2025-05-03 05:30:05*
%MOMM*%
%LPD*%
G01*
G04 APERTURE LIST*
%TA.AperFunction,ComponentPad*%
%ADD10C,2.006600*%
%TD*%
%TA.AperFunction,ComponentPad*%
%ADD11C,1.905000*%
%TD*%
%TA.AperFunction,ComponentPad*%
%ADD12R,1.268000X1.268000*%
%TD*%
%TA.AperFunction,ComponentPad*%
%ADD13C,1.268000*%
%TD*%
%TA.AperFunction,ComponentPad*%
%ADD14C,0.800000*%
%TD*%
%TA.AperFunction,ComponentPad*%
%ADD15C,6.400000*%
%TD*%
%TA.AperFunction,WasherPad*%
%ADD16C,4.250000*%
%TD*%
%TA.AperFunction,ComponentPad*%
%ADD17R,1.625600X1.625600*%
%TD*%
%TA.AperFunction,ComponentPad*%
%ADD18C,1.625600*%
%TD*%
%TA.AperFunction,ComponentPad*%
%ADD19R,1.700000X1.700000*%
%TD*%
%TA.AperFunction,ComponentPad*%
%ADD20O,1.700000X1.700000*%
%TD*%
%TA.AperFunction,ComponentPad*%
%ADD21C,1.371600*%
%TD*%
%TA.AperFunction,ComponentPad*%
%ADD22C,1.600200*%
%TD*%
%TA.AperFunction,ComponentPad*%
%ADD23R,1.800000X1.800000*%
%TD*%
%TA.AperFunction,ComponentPad*%
%ADD24O,1.800000X1.800000*%
%TD*%
%TA.AperFunction,ViaPad*%
%ADD25C,0.650000*%
%TD*%
G04 APERTURE END LIST*
D10*
%TO.N,Net-(J402-Sig)*%
%TO.C,J402*%
X202458100Y-49190300D03*
D11*
%TO.N,GND*%
X199905400Y-46637600D03*
X199905400Y-51743000D03*
X205010800Y-51743000D03*
X205010800Y-46637600D03*
%TD*%
D10*
%TO.N,Net-(J402-Sig)*%
%TO.C,J202*%
X98758100Y-49190300D03*
D11*
%TO.N,GND*%
X96205400Y-46637600D03*
X96205400Y-51743000D03*
X101310800Y-51743000D03*
X101310800Y-46637600D03*
%TD*%
D12*
%TO.N,GND*%
%TO.C,RV201*%
X119710000Y-91090000D03*
D13*
%TO.N,Net-(U401-REF)*%
X117170000Y-91090000D03*
%TO.N,/Z_DAC/VRef+*%
X114630000Y-91090000D03*
%TD*%
D14*
%TO.N,N/C*%
%TO.C,H5*%
X122300000Y-49200000D03*
X123002944Y-47502944D03*
X123002944Y-50897056D03*
X124700000Y-46800000D03*
D15*
X124700000Y-49200000D03*
D14*
X124700000Y-51600000D03*
X126397056Y-47502944D03*
X126397056Y-50897056D03*
X127100000Y-49200000D03*
%TD*%
D12*
%TO.N,GND*%
%TO.C,RV401*%
X223410000Y-91190000D03*
D13*
%TO.N,Net-(U401-REF)*%
X220870000Y-91190000D03*
%TO.N,/Z_DAC/VRef+*%
X218330000Y-91190000D03*
%TD*%
D12*
%TO.N,GND*%
%TO.C,RV301*%
X171560000Y-91140000D03*
D13*
%TO.N,Net-(U401-REF)*%
X169020000Y-91140000D03*
%TO.N,/Z_DAC/VRef+*%
X166480000Y-91140000D03*
%TD*%
D14*
%TO.N,N/C*%
%TO.C,H1*%
X72850000Y-48500000D03*
X73552944Y-46802944D03*
X73552944Y-50197056D03*
X75250000Y-46100000D03*
D15*
X75250000Y-48500000D03*
D14*
X75250000Y-50900000D03*
X76947056Y-46802944D03*
X76947056Y-50197056D03*
X77650000Y-48500000D03*
%TD*%
D16*
%TO.N,*%
%TO.C,Heatsink*%
X188170000Y-68190000D03*
X213570000Y-68190000D03*
%TD*%
D17*
%TO.N,+15V*%
%TO.C,D101*%
X235500000Y-72750000D03*
D18*
%TO.N,GND*%
X235500000Y-83926000D03*
%TD*%
D19*
%TO.N,GND*%
%TO.C,J401*%
X189045000Y-108865000D03*
D20*
%TO.N,Net-(J401-Pin_2)*%
X191585000Y-108865000D03*
%TO.N,Net-(J401-Pin_3)*%
X194125000Y-108865000D03*
%TO.N,Net-(J401-Pin_4)*%
X196665000Y-108865000D03*
%TO.N,Net-(J401-Pin_5)*%
X199205000Y-108865000D03*
%TO.N,Net-(J401-Pin_6)*%
X201745000Y-108865000D03*
%TO.N,Net-(J401-Pin_7)*%
X204285000Y-108865000D03*
%TO.N,Net-(J401-Pin_8)*%
X206825000Y-108865000D03*
%TO.N,Net-(J401-Pin_9)*%
X209365000Y-108865000D03*
%TO.N,GND*%
X211905000Y-108865000D03*
%TD*%
D14*
%TO.N,N/C*%
%TO.C,H3*%
X250100000Y-110750000D03*
X250802944Y-109052944D03*
X250802944Y-112447056D03*
X252500000Y-108350000D03*
D15*
X252500000Y-110750000D03*
D14*
X252500000Y-113150000D03*
X254197056Y-109052944D03*
X254197056Y-112447056D03*
X254900000Y-110750000D03*
%TD*%
D16*
%TO.N,*%
%TO.C,Heatsink*%
X84470000Y-68090000D03*
X109870000Y-68090000D03*
%TD*%
D14*
%TO.N,N/C*%
%TO.C,H2*%
X72850000Y-110750000D03*
X73552944Y-109052944D03*
X73552944Y-112447056D03*
X75250000Y-108350000D03*
D15*
X75250000Y-110750000D03*
D14*
X75250000Y-113150000D03*
X76947056Y-109052944D03*
X76947056Y-112447056D03*
X77650000Y-110750000D03*
%TD*%
D19*
%TO.N,GND*%
%TO.C,J201*%
X85345000Y-108765000D03*
D20*
%TO.N,Net-(J401-Pin_2)*%
X87885000Y-108765000D03*
%TO.N,Net-(J401-Pin_3)*%
X90425000Y-108765000D03*
%TO.N,Net-(J401-Pin_4)*%
X92965000Y-108765000D03*
%TO.N,Net-(J401-Pin_5)*%
X95505000Y-108765000D03*
%TO.N,Net-(J401-Pin_6)*%
X98045000Y-108765000D03*
%TO.N,Net-(J401-Pin_7)*%
X100585000Y-108765000D03*
%TO.N,Net-(J401-Pin_8)*%
X103125000Y-108765000D03*
%TO.N,Net-(J401-Pin_9)*%
X105665000Y-108765000D03*
%TO.N,GND*%
X108205000Y-108765000D03*
%TD*%
D19*
%TO.N,GND*%
%TO.C,J301*%
X137195000Y-108815000D03*
D20*
%TO.N,Net-(J401-Pin_2)*%
X139735000Y-108815000D03*
%TO.N,Net-(J401-Pin_3)*%
X142275000Y-108815000D03*
%TO.N,Net-(J401-Pin_4)*%
X144815000Y-108815000D03*
%TO.N,Net-(J401-Pin_5)*%
X147355000Y-108815000D03*
%TO.N,Net-(J401-Pin_6)*%
X149895000Y-108815000D03*
%TO.N,Net-(J401-Pin_7)*%
X152435000Y-108815000D03*
%TO.N,Net-(J401-Pin_8)*%
X154975000Y-108815000D03*
%TO.N,Net-(J401-Pin_9)*%
X157515000Y-108815000D03*
%TO.N,GND*%
X160055000Y-108815000D03*
%TD*%
D17*
%TO.N,GND*%
%TO.C,D102*%
X235500000Y-97860500D03*
D18*
%TO.N,-15V*%
X235500000Y-109036500D03*
%TD*%
D16*
%TO.N,*%
%TO.C,Heatsink*%
X136320000Y-68140000D03*
X161720000Y-68140000D03*
%TD*%
D21*
%TO.N,+15V*%
%TO.C,C101*%
X244000000Y-72750000D03*
%TO.N,GND*%
X244000000Y-76250001D03*
%TD*%
D22*
%TO.N,+15V*%
%TO.C,J101*%
X253000000Y-85920000D03*
%TO.N,GND*%
X253000000Y-91000000D03*
%TO.N,-15V*%
X253000000Y-96080000D03*
%TD*%
D21*
%TO.N,GND*%
%TO.C,C102*%
X244000000Y-105499999D03*
%TO.N,-15V*%
X244000000Y-109000000D03*
%TD*%
D14*
%TO.N,N/C*%
%TO.C,H6*%
X174100000Y-49200000D03*
X174802944Y-47502944D03*
X174802944Y-50897056D03*
X176500000Y-46800000D03*
D15*
X176500000Y-49200000D03*
D14*
X176500000Y-51600000D03*
X178197056Y-47502944D03*
X178197056Y-50897056D03*
X178900000Y-49200000D03*
%TD*%
D23*
%TO.N,GND*%
%TO.C,U203*%
X93658100Y-79590300D03*
D24*
%TO.N,Net-(U402-IOUT)*%
X95358100Y-75890300D03*
%TO.N,-15V*%
X97058100Y-79590300D03*
%TO.N,Net-(J402-Sig)*%
X98758100Y-75890300D03*
%TO.N,+15V*%
X100458100Y-79590300D03*
%TD*%
D14*
%TO.N,N/C*%
%TO.C,H4*%
X250100000Y-48500000D03*
X250802944Y-46802944D03*
X250802944Y-50197056D03*
X252500000Y-46100000D03*
D15*
X252500000Y-48500000D03*
D14*
X252500000Y-50900000D03*
X254197056Y-46802944D03*
X254197056Y-50197056D03*
X254900000Y-48500000D03*
%TD*%
D23*
%TO.N,GND*%
%TO.C,U403*%
X197358100Y-79690300D03*
D24*
%TO.N,Net-(U402-IOUT)*%
X199058100Y-75990300D03*
%TO.N,-15V*%
X200758100Y-79690300D03*
%TO.N,Net-(J402-Sig)*%
X202458100Y-75990300D03*
%TO.N,+15V*%
X204158100Y-79690300D03*
%TD*%
D10*
%TO.N,Net-(J402-Sig)*%
%TO.C,J302*%
X150608100Y-49190300D03*
D11*
%TO.N,GND*%
X148055400Y-46637600D03*
X148055400Y-51743000D03*
X153160800Y-51743000D03*
X153160800Y-46637600D03*
%TD*%
D23*
%TO.N,GND*%
%TO.C,U303*%
X145508100Y-79640300D03*
D24*
%TO.N,Net-(U402-IOUT)*%
X147208100Y-75940300D03*
%TO.N,-15V*%
X148908100Y-79640300D03*
%TO.N,Net-(J402-Sig)*%
X150608100Y-75940300D03*
%TO.N,+15V*%
X152308100Y-79640300D03*
%TD*%
D25*
%TO.N,+15V*%
X154058100Y-90490300D03*
X102880000Y-79570000D03*
X104158100Y-89040300D03*
X102208100Y-90440300D03*
X207858100Y-89140300D03*
X107658100Y-88040300D03*
X154630000Y-79610000D03*
X156008100Y-89090300D03*
X211358100Y-88140300D03*
X159508100Y-88090300D03*
X223607649Y-96989849D03*
X162308100Y-81090300D03*
X206720000Y-79690000D03*
X110458100Y-81040300D03*
X205908100Y-90540300D03*
X171757649Y-96939849D03*
X119907649Y-96889849D03*
X214158100Y-81140300D03*
%TO.N,GND*%
X146758100Y-89390300D03*
X208958100Y-52340300D03*
X175908100Y-79640300D03*
X105258100Y-52240300D03*
X89108100Y-85990300D03*
X184658100Y-80340300D03*
X156058100Y-85090300D03*
X160058100Y-111290300D03*
X132808100Y-80290300D03*
X223408100Y-92590300D03*
X197320000Y-82070000D03*
X175408100Y-106490300D03*
X217308100Y-97890300D03*
X229150000Y-103910000D03*
X207908100Y-85140300D03*
X198608100Y-89440300D03*
X192808100Y-86090300D03*
X189008100Y-111240300D03*
X211908100Y-111340300D03*
X85308100Y-111140300D03*
X137158100Y-111190300D03*
X165458100Y-97840300D03*
X171558100Y-92540300D03*
X151508100Y-85040300D03*
X203358100Y-85090300D03*
X105620000Y-84930000D03*
X227758100Y-79690300D03*
X99658100Y-84990300D03*
X80958100Y-80240300D03*
X113608100Y-97790300D03*
X124058100Y-79590300D03*
X96208100Y-89740300D03*
X119690000Y-93030000D03*
X94908100Y-89340300D03*
X199908100Y-89840300D03*
X104208100Y-85040300D03*
X158208100Y-85090300D03*
X140958100Y-86040300D03*
X93630000Y-81860000D03*
X157108100Y-52290300D03*
X123180000Y-105140000D03*
X210058100Y-85140300D03*
X145500000Y-81930000D03*
X108208100Y-111240300D03*
X148058100Y-89790300D03*
%TO.N,-15V*%
X179858100Y-88140300D03*
X81058100Y-78390300D03*
X76158100Y-88040300D03*
X198858100Y-84990300D03*
X93408100Y-89290300D03*
X184758100Y-78490300D03*
X145258100Y-89340300D03*
X147008100Y-84940300D03*
X128008100Y-88090300D03*
X97408100Y-84890300D03*
X197108100Y-89390300D03*
X149258100Y-84940300D03*
X148900000Y-81700000D03*
X97100000Y-81740000D03*
X201108100Y-84990300D03*
X132908100Y-78440300D03*
X200760000Y-81830000D03*
X95158100Y-84890300D03*
%TD*%
%TA.AperFunction,Conductor*%
%TO.N,-15V*%
G36*
X82923777Y-77859985D02*
G01*
X82944419Y-77876619D01*
X83121781Y-78053981D01*
X83155266Y-78115304D01*
X83158100Y-78141662D01*
X83158100Y-78538938D01*
X83138415Y-78605977D01*
X83121781Y-78626619D01*
X82944419Y-78803981D01*
X82883096Y-78837466D01*
X82856738Y-78840300D01*
X80008100Y-78840300D01*
X79265243Y-79440300D01*
X77408099Y-80940300D01*
X77427490Y-87070541D01*
X77427491Y-87070542D01*
X77700748Y-87290493D01*
X79615547Y-87290304D01*
X79682588Y-87309982D01*
X79691688Y-87316424D01*
X80060229Y-87603067D01*
X80101061Y-87659764D01*
X80108100Y-87700947D01*
X80108100Y-88438938D01*
X80088415Y-88505977D01*
X80071781Y-88526619D01*
X79694419Y-88903981D01*
X79633096Y-88937466D01*
X79606738Y-88940300D01*
X77258100Y-88940300D01*
X77071433Y-89103632D01*
X76858100Y-89290299D01*
X76858100Y-89290300D01*
X76858100Y-93990300D01*
X77408100Y-94540300D01*
X88508098Y-94540300D01*
X88508100Y-94540300D01*
X89158100Y-93940300D01*
X89158100Y-90442857D01*
X89177785Y-90375818D01*
X89195868Y-90353751D01*
X91614613Y-88013016D01*
X91614638Y-88012992D01*
X92758100Y-86840300D01*
X93407851Y-85942589D01*
X95958100Y-81190300D01*
X95958100Y-80761863D01*
X95977785Y-80694824D01*
X96030589Y-80649069D01*
X96099747Y-80639125D01*
X96158263Y-80664010D01*
X96289749Y-80766350D01*
X96493797Y-80876776D01*
X96493806Y-80876779D01*
X96713239Y-80952111D01*
X96808099Y-80967940D01*
X96808100Y-80967939D01*
X96808100Y-80081047D01*
X96845808Y-80102818D01*
X96985691Y-80140300D01*
X97130509Y-80140300D01*
X97270392Y-80102818D01*
X97308100Y-80081047D01*
X97308100Y-80967940D01*
X97402960Y-80952111D01*
X97622393Y-80876779D01*
X97622402Y-80876776D01*
X97826450Y-80766350D01*
X97957937Y-80664010D01*
X98022931Y-80638367D01*
X98091471Y-80651933D01*
X98141796Y-80700402D01*
X98158100Y-80761863D01*
X98158100Y-86388938D01*
X98138415Y-86455977D01*
X98121781Y-86476619D01*
X97994419Y-86603981D01*
X97933096Y-86637466D01*
X97906738Y-86640300D01*
X94408100Y-86640300D01*
X93958100Y-86990300D01*
X93958100Y-91716300D01*
X93938415Y-91783339D01*
X93885611Y-91829094D01*
X93834100Y-91840300D01*
X93532100Y-91840300D01*
X93465061Y-91820615D01*
X93419306Y-91767811D01*
X93408100Y-91716300D01*
X93408100Y-90090300D01*
X93058100Y-89740300D01*
X91858100Y-89740300D01*
X91444464Y-90090300D01*
X90558100Y-90840299D01*
X90558100Y-90840300D01*
X90558100Y-94840300D01*
X75808100Y-94849994D01*
X75808100Y-80990300D01*
X75808100Y-79498954D01*
X75827785Y-79431915D01*
X75853442Y-79403096D01*
X77422939Y-78115304D01*
X77723806Y-77868439D01*
X77788118Y-77841132D01*
X77802461Y-77840300D01*
X82856738Y-77840300D01*
X82923777Y-77859985D01*
G37*
%TD.AperFunction*%
%TD*%
%TA.AperFunction,Conductor*%
%TO.N,+15V*%
G36*
X111058100Y-78690300D02*
G01*
X114208100Y-78690300D01*
X114616481Y-79053305D01*
X114653509Y-79112556D01*
X114658100Y-79145984D01*
X114658100Y-80034615D01*
X114638415Y-80101654D01*
X114616481Y-80127294D01*
X114244546Y-80457903D01*
X114181363Y-80487729D01*
X114159348Y-80489192D01*
X112008100Y-80440299D01*
X112008099Y-80440300D01*
X111558100Y-80940299D01*
X111558100Y-80940300D01*
X111558100Y-84340300D01*
X111958100Y-84790300D01*
X116581995Y-84790300D01*
X116631987Y-84800823D01*
X123684094Y-87907696D01*
X123737506Y-87952737D01*
X123758089Y-88019507D01*
X123758100Y-88021171D01*
X123758100Y-95866113D01*
X123738415Y-95933152D01*
X123692729Y-95975377D01*
X119658102Y-98140298D01*
X119658099Y-98140300D01*
X119444419Y-98353981D01*
X119383096Y-98387466D01*
X119356738Y-98390300D01*
X118545644Y-98390300D01*
X118478605Y-98370615D01*
X118476861Y-98369474D01*
X118263317Y-98227111D01*
X118218456Y-98173546D01*
X118208100Y-98123937D01*
X118208100Y-97633797D01*
X118227785Y-97566758D01*
X118235272Y-97556335D01*
X118394798Y-97356927D01*
X118426185Y-97329064D01*
X121708100Y-95290300D01*
X121708100Y-90640300D01*
X121708098Y-90640298D01*
X120773925Y-90173212D01*
X120730113Y-90136615D01*
X120701546Y-90098454D01*
X120586331Y-90012204D01*
X120586329Y-90012203D01*
X120586328Y-90012202D01*
X120451482Y-89961908D01*
X120451483Y-89961908D01*
X120391883Y-89955501D01*
X120391881Y-89955500D01*
X120391873Y-89955500D01*
X120391865Y-89955500D01*
X120367772Y-89955500D01*
X120312318Y-89942409D01*
X119008098Y-89290299D01*
X104858102Y-89340299D01*
X104858097Y-89340301D01*
X101646156Y-91811025D01*
X101581017Y-91836298D01*
X101560255Y-91836312D01*
X101121803Y-91799775D01*
X101056629Y-91774591D01*
X101015418Y-91718170D01*
X101008100Y-91676203D01*
X101008100Y-90450287D01*
X101027785Y-90383248D01*
X101055131Y-90353066D01*
X103408100Y-88490300D01*
X103408100Y-87741662D01*
X103427785Y-87674623D01*
X103444419Y-87653981D01*
X103621781Y-87476619D01*
X103683104Y-87443134D01*
X103709462Y-87440300D01*
X106908100Y-87440300D01*
X107408100Y-86890300D01*
X107410000Y-84090000D01*
X100532194Y-81228739D01*
X100477858Y-81184815D01*
X100455895Y-81118487D01*
X100473279Y-81050814D01*
X100524489Y-81003282D01*
X100569588Y-80990674D01*
X100574110Y-80990299D01*
X100802960Y-80952111D01*
X101022393Y-80876779D01*
X101022402Y-80876776D01*
X101226451Y-80766350D01*
X101226455Y-80766347D01*
X101409537Y-80623848D01*
X101409541Y-80623845D01*
X101566685Y-80453142D01*
X101693583Y-80258909D01*
X101786782Y-80046435D01*
X101838983Y-79840300D01*
X100948848Y-79840300D01*
X100970618Y-79802592D01*
X101008100Y-79662709D01*
X101008100Y-79517891D01*
X100970618Y-79378008D01*
X100948848Y-79340300D01*
X101838983Y-79340300D01*
X101786782Y-79134164D01*
X101693583Y-78921690D01*
X101566685Y-78727457D01*
X101539828Y-78698283D01*
X101508906Y-78635628D01*
X101516766Y-78566202D01*
X101560913Y-78512047D01*
X101627331Y-78490356D01*
X101631058Y-78490300D01*
X102379849Y-78490300D01*
X102379850Y-78490300D01*
X110508100Y-78490300D01*
X111058100Y-78690300D01*
G37*
%TD.AperFunction*%
%TD*%
%TA.AperFunction,Conductor*%
%TO.N,+15V*%
G36*
X162908100Y-78740300D02*
G01*
X166058100Y-78740300D01*
X166466481Y-79103305D01*
X166503509Y-79162556D01*
X166508100Y-79195984D01*
X166508100Y-80084615D01*
X166488415Y-80151654D01*
X166466481Y-80177294D01*
X166094546Y-80507903D01*
X166031363Y-80537729D01*
X166009348Y-80539192D01*
X163858100Y-80490299D01*
X163858099Y-80490300D01*
X163408100Y-80990299D01*
X163408100Y-80990300D01*
X163408100Y-84390300D01*
X163808100Y-84840300D01*
X168431995Y-84840300D01*
X168481987Y-84850823D01*
X175534094Y-87957696D01*
X175587506Y-88002737D01*
X175608089Y-88069507D01*
X175608100Y-88071171D01*
X175608100Y-95916113D01*
X175588415Y-95983152D01*
X175542729Y-96025377D01*
X171508102Y-98190298D01*
X171508099Y-98190300D01*
X171294419Y-98403981D01*
X171233096Y-98437466D01*
X171206738Y-98440300D01*
X170395644Y-98440300D01*
X170328605Y-98420615D01*
X170326861Y-98419474D01*
X170113317Y-98277111D01*
X170068456Y-98223546D01*
X170058100Y-98173937D01*
X170058100Y-97683797D01*
X170077785Y-97616758D01*
X170085272Y-97606335D01*
X170244798Y-97406927D01*
X170276185Y-97379064D01*
X173558100Y-95340300D01*
X173558100Y-90690300D01*
X173558098Y-90690298D01*
X172623925Y-90223212D01*
X172580113Y-90186615D01*
X172551546Y-90148454D01*
X172436331Y-90062204D01*
X172436329Y-90062203D01*
X172436328Y-90062202D01*
X172301482Y-90011908D01*
X172301483Y-90011908D01*
X172241883Y-90005501D01*
X172241881Y-90005500D01*
X172241873Y-90005500D01*
X172241865Y-90005500D01*
X172217772Y-90005500D01*
X172162318Y-89992409D01*
X170858098Y-89340299D01*
X156708102Y-89390299D01*
X156708097Y-89390301D01*
X153496156Y-91861025D01*
X153431017Y-91886298D01*
X153410255Y-91886312D01*
X152971803Y-91849775D01*
X152906629Y-91824591D01*
X152865418Y-91768170D01*
X152858100Y-91726203D01*
X152858100Y-90500287D01*
X152877785Y-90433248D01*
X152905131Y-90403066D01*
X155258100Y-88540300D01*
X155258100Y-87791662D01*
X155277785Y-87724623D01*
X155294419Y-87703981D01*
X155471781Y-87526619D01*
X155533104Y-87493134D01*
X155559462Y-87490300D01*
X158758100Y-87490300D01*
X159258100Y-86940300D01*
X159258100Y-84240000D01*
X156788462Y-83181675D01*
X152133258Y-81186761D01*
X152079391Y-81142261D01*
X152058134Y-81075704D01*
X152058100Y-81072785D01*
X152058100Y-80131047D01*
X152095808Y-80152818D01*
X152235691Y-80190300D01*
X152380509Y-80190300D01*
X152520392Y-80152818D01*
X152558100Y-80131047D01*
X152558100Y-81017940D01*
X152652960Y-81002111D01*
X152872393Y-80926779D01*
X152872402Y-80926776D01*
X153076451Y-80816350D01*
X153076455Y-80816347D01*
X153259537Y-80673848D01*
X153259541Y-80673845D01*
X153416685Y-80503142D01*
X153543583Y-80308909D01*
X153636782Y-80096435D01*
X153688983Y-79890300D01*
X152798848Y-79890300D01*
X152820618Y-79852592D01*
X152858100Y-79712709D01*
X152858100Y-79567891D01*
X152820618Y-79428008D01*
X152798848Y-79390300D01*
X153688983Y-79390300D01*
X153636782Y-79184164D01*
X153543583Y-78971690D01*
X153416685Y-78777457D01*
X153389828Y-78748283D01*
X153358906Y-78685628D01*
X153366766Y-78616202D01*
X153410913Y-78562047D01*
X153477331Y-78540356D01*
X153481058Y-78540300D01*
X153959700Y-78540300D01*
X162358100Y-78540300D01*
X162908100Y-78740300D01*
G37*
%TD.AperFunction*%
%TD*%
%TA.AperFunction,Conductor*%
%TO.N,-15V*%
G36*
X186623777Y-77959985D02*
G01*
X186644419Y-77976619D01*
X186821781Y-78153981D01*
X186855266Y-78215304D01*
X186858100Y-78241662D01*
X186858100Y-78638938D01*
X186838415Y-78705977D01*
X186821781Y-78726619D01*
X186644419Y-78903981D01*
X186583096Y-78937466D01*
X186556738Y-78940300D01*
X183708100Y-78940300D01*
X182965243Y-79540300D01*
X181108099Y-81040300D01*
X181127490Y-87170541D01*
X181127491Y-87170542D01*
X181400748Y-87390493D01*
X183315547Y-87390304D01*
X183382588Y-87409982D01*
X183391688Y-87416424D01*
X183760229Y-87703067D01*
X183801061Y-87759764D01*
X183808100Y-87800947D01*
X183808100Y-88538938D01*
X183788415Y-88605977D01*
X183771781Y-88626619D01*
X183394419Y-89003981D01*
X183333096Y-89037466D01*
X183306738Y-89040300D01*
X180958100Y-89040300D01*
X180771433Y-89203632D01*
X180558100Y-89390299D01*
X180558100Y-89390300D01*
X180558100Y-94090300D01*
X181108100Y-94640300D01*
X192208098Y-94640300D01*
X192208100Y-94640300D01*
X192858100Y-94040300D01*
X192858100Y-90542857D01*
X192877785Y-90475818D01*
X192895868Y-90453751D01*
X195314613Y-88113016D01*
X195314638Y-88112992D01*
X196458100Y-86940300D01*
X197107851Y-86042589D01*
X199658100Y-81290300D01*
X199658100Y-80861863D01*
X199677785Y-80794824D01*
X199730589Y-80749069D01*
X199799747Y-80739125D01*
X199858263Y-80764010D01*
X199989749Y-80866350D01*
X200193797Y-80976776D01*
X200193806Y-80976779D01*
X200413239Y-81052111D01*
X200508099Y-81067940D01*
X200508100Y-81067939D01*
X200508100Y-80181047D01*
X200545808Y-80202818D01*
X200685691Y-80240300D01*
X200830509Y-80240300D01*
X200970392Y-80202818D01*
X201008100Y-80181047D01*
X201008100Y-81067940D01*
X201102960Y-81052111D01*
X201322393Y-80976779D01*
X201322402Y-80976776D01*
X201526450Y-80866350D01*
X201657937Y-80764010D01*
X201722931Y-80738367D01*
X201791471Y-80751933D01*
X201841796Y-80800402D01*
X201858100Y-80861863D01*
X201858100Y-86488938D01*
X201838415Y-86555977D01*
X201821781Y-86576619D01*
X201694419Y-86703981D01*
X201633096Y-86737466D01*
X201606738Y-86740300D01*
X198108100Y-86740300D01*
X197658100Y-87090300D01*
X197658100Y-91816300D01*
X197638415Y-91883339D01*
X197585611Y-91929094D01*
X197534100Y-91940300D01*
X197232100Y-91940300D01*
X197165061Y-91920615D01*
X197119306Y-91867811D01*
X197108100Y-91816300D01*
X197108100Y-90190300D01*
X196758100Y-89840300D01*
X195558100Y-89840300D01*
X195144464Y-90190300D01*
X194258100Y-90940299D01*
X194258100Y-90940300D01*
X194258100Y-94940300D01*
X179500029Y-94949999D01*
X179508100Y-81090300D01*
X179508100Y-79598954D01*
X179527785Y-79531915D01*
X179553442Y-79503096D01*
X181122939Y-78215304D01*
X181423806Y-77968439D01*
X181488118Y-77941132D01*
X181502461Y-77940300D01*
X186556738Y-77940300D01*
X186623777Y-77959985D01*
G37*
%TD.AperFunction*%
%TD*%
%TA.AperFunction,Conductor*%
%TO.N,+15V*%
G36*
X214758100Y-78790300D02*
G01*
X217908100Y-78790300D01*
X218316481Y-79153305D01*
X218353509Y-79212556D01*
X218358100Y-79245984D01*
X218358100Y-80134615D01*
X218338415Y-80201654D01*
X218316481Y-80227294D01*
X217944546Y-80557903D01*
X217881363Y-80587729D01*
X217859348Y-80589192D01*
X215708100Y-80540299D01*
X215708099Y-80540300D01*
X215258100Y-81040299D01*
X215258100Y-81040300D01*
X215258100Y-84440300D01*
X215658100Y-84890300D01*
X220281995Y-84890300D01*
X220331987Y-84900823D01*
X227384094Y-88007696D01*
X227437506Y-88052737D01*
X227458089Y-88119507D01*
X227458100Y-88121171D01*
X227458100Y-95966113D01*
X227438415Y-96033152D01*
X227392729Y-96075377D01*
X223358102Y-98240298D01*
X223358099Y-98240300D01*
X223144419Y-98453981D01*
X223083096Y-98487466D01*
X223056738Y-98490300D01*
X222245644Y-98490300D01*
X222178605Y-98470615D01*
X222176861Y-98469474D01*
X221963317Y-98327111D01*
X221918456Y-98273546D01*
X221908100Y-98223937D01*
X221908100Y-97733797D01*
X221927785Y-97666758D01*
X221935272Y-97656335D01*
X222094798Y-97456927D01*
X222126185Y-97429064D01*
X225408100Y-95390300D01*
X225408100Y-90740300D01*
X225408098Y-90740298D01*
X224473925Y-90273212D01*
X224430113Y-90236615D01*
X224401546Y-90198454D01*
X224286331Y-90112204D01*
X224286329Y-90112203D01*
X224286328Y-90112202D01*
X224151482Y-90061908D01*
X224151483Y-90061908D01*
X224091883Y-90055501D01*
X224091881Y-90055500D01*
X224091873Y-90055500D01*
X224091865Y-90055500D01*
X224067772Y-90055500D01*
X224012318Y-90042409D01*
X222708098Y-89390299D01*
X208558102Y-89440299D01*
X208558097Y-89440301D01*
X205346156Y-91911025D01*
X205281017Y-91936298D01*
X205260255Y-91936312D01*
X204821803Y-91899775D01*
X204756629Y-91874591D01*
X204715418Y-91818170D01*
X204708100Y-91776203D01*
X204708100Y-90550287D01*
X204727785Y-90483248D01*
X204755131Y-90453066D01*
X207108100Y-88590300D01*
X207108100Y-87841662D01*
X207127785Y-87774623D01*
X207144419Y-87753981D01*
X207321781Y-87576619D01*
X207383104Y-87543134D01*
X207409462Y-87540300D01*
X210608100Y-87540300D01*
X211108100Y-86990300D01*
X211110000Y-84350000D01*
X211109999Y-84349999D01*
X211110000Y-84349999D01*
X203979303Y-81241838D01*
X203925713Y-81197006D01*
X203904869Y-81130318D01*
X203908100Y-81118563D01*
X203908100Y-80181047D01*
X203945808Y-80202818D01*
X204085691Y-80240300D01*
X204230509Y-80240300D01*
X204370392Y-80202818D01*
X204408100Y-80181047D01*
X204408100Y-81067940D01*
X204502960Y-81052111D01*
X204722393Y-80976779D01*
X204722402Y-80976776D01*
X204926451Y-80866350D01*
X204926455Y-80866347D01*
X205109537Y-80723848D01*
X205109541Y-80723845D01*
X205266685Y-80553142D01*
X205393583Y-80358909D01*
X205486782Y-80146435D01*
X205538983Y-79940300D01*
X204648848Y-79940300D01*
X204670618Y-79902592D01*
X204708100Y-79762709D01*
X204708100Y-79617891D01*
X204670618Y-79478008D01*
X204648848Y-79440300D01*
X205538983Y-79440300D01*
X205486782Y-79234164D01*
X205393583Y-79021690D01*
X205266685Y-78827457D01*
X205239828Y-78798283D01*
X205208906Y-78735628D01*
X205216766Y-78666202D01*
X205260913Y-78612047D01*
X205327331Y-78590356D01*
X205331058Y-78590300D01*
X206209700Y-78590300D01*
X214208100Y-78590300D01*
X214758100Y-78790300D01*
G37*
%TD.AperFunction*%
%TD*%
%TA.AperFunction,Conductor*%
%TO.N,-15V*%
G36*
X253765677Y-93769685D02*
G01*
X253786319Y-93786319D01*
X255213681Y-95213681D01*
X255247166Y-95275004D01*
X255250000Y-95301362D01*
X255250000Y-104431273D01*
X255230315Y-104498312D01*
X255191720Y-104536425D01*
X251250001Y-106999999D01*
X251249999Y-107000000D01*
X250787331Y-107462667D01*
X250755946Y-107485470D01*
X250647212Y-107540873D01*
X250647208Y-107540875D01*
X250321917Y-107752122D01*
X250020488Y-107996215D01*
X250020480Y-107996222D01*
X249746222Y-108270480D01*
X249746215Y-108270488D01*
X249502122Y-108571917D01*
X249290875Y-108897208D01*
X249290873Y-108897212D01*
X249235470Y-109005946D01*
X249212667Y-109037331D01*
X247036319Y-111213681D01*
X246974996Y-111247166D01*
X246948638Y-111250000D01*
X232768878Y-111250000D01*
X232731979Y-111244383D01*
X225648351Y-109036499D01*
X234182185Y-109036499D01*
X234182185Y-109036500D01*
X234202205Y-109265331D01*
X234202207Y-109265341D01*
X234261656Y-109487211D01*
X234261660Y-109487220D01*
X234358738Y-109695406D01*
X234358739Y-109695408D01*
X234411783Y-109771163D01*
X234969026Y-109213919D01*
X234979281Y-109252189D01*
X235052849Y-109379611D01*
X235156889Y-109483651D01*
X235284311Y-109557219D01*
X235322579Y-109567472D01*
X234765335Y-110124715D01*
X234841092Y-110177760D01*
X235049279Y-110274839D01*
X235049288Y-110274843D01*
X235271158Y-110334292D01*
X235271168Y-110334294D01*
X235499999Y-110354315D01*
X235500001Y-110354315D01*
X235728831Y-110334294D01*
X235728841Y-110334292D01*
X235950711Y-110274843D01*
X235950725Y-110274838D01*
X236158903Y-110177763D01*
X236158911Y-110177759D01*
X236234663Y-110124716D01*
X235677420Y-109567473D01*
X235715689Y-109557219D01*
X235843111Y-109483651D01*
X235947151Y-109379611D01*
X236020719Y-109252189D01*
X236030973Y-109213920D01*
X236588216Y-109771163D01*
X236641259Y-109695411D01*
X236641263Y-109695403D01*
X236738338Y-109487225D01*
X236738343Y-109487211D01*
X236797792Y-109265341D01*
X236797794Y-109265331D01*
X236817815Y-109036500D01*
X236817815Y-109036499D01*
X236814622Y-108999999D01*
X242809120Y-108999999D01*
X242809120Y-109000000D01*
X242829396Y-109218819D01*
X242889538Y-109430200D01*
X242889539Y-109430201D01*
X242987487Y-109626908D01*
X242987494Y-109626920D01*
X243001275Y-109645168D01*
X243572721Y-109073723D01*
X243597626Y-109166669D01*
X243654474Y-109265131D01*
X243734869Y-109345526D01*
X243833331Y-109402374D01*
X243926274Y-109427277D01*
X243356986Y-109996565D01*
X243356987Y-109996566D01*
X243469175Y-110066030D01*
X243469181Y-110066032D01*
X243674101Y-110145418D01*
X243890121Y-110185800D01*
X244109879Y-110185800D01*
X244325897Y-110145418D01*
X244325898Y-110145418D01*
X244530820Y-110066032D01*
X244530821Y-110066031D01*
X244643012Y-109996565D01*
X244073725Y-109427277D01*
X244166669Y-109402374D01*
X244265131Y-109345526D01*
X244345526Y-109265131D01*
X244402374Y-109166669D01*
X244427277Y-109073724D01*
X244998722Y-109645168D01*
X244998723Y-109645168D01*
X245012505Y-109626920D01*
X245012507Y-109626915D01*
X245110461Y-109430198D01*
X245170603Y-109218819D01*
X245190880Y-109000000D01*
X245190880Y-108999999D01*
X245170603Y-108781180D01*
X245110461Y-108569799D01*
X245110460Y-108569798D01*
X245012511Y-108373088D01*
X245012506Y-108373081D01*
X244998722Y-108354829D01*
X244427277Y-108926274D01*
X244402374Y-108833331D01*
X244345526Y-108734869D01*
X244265131Y-108654474D01*
X244166669Y-108597626D01*
X244073724Y-108572722D01*
X244643012Y-108003433D01*
X244643011Y-108003432D01*
X244530824Y-107933970D01*
X244530818Y-107933967D01*
X244325898Y-107854581D01*
X244109879Y-107814200D01*
X243890121Y-107814200D01*
X243674102Y-107854581D01*
X243674101Y-107854581D01*
X243469182Y-107933966D01*
X243356986Y-108003433D01*
X243926275Y-108572721D01*
X243833331Y-108597626D01*
X243734869Y-108654474D01*
X243654474Y-108734869D01*
X243597626Y-108833331D01*
X243572722Y-108926275D01*
X243001276Y-108354829D01*
X242987497Y-108373075D01*
X242987489Y-108373088D01*
X242889538Y-108569801D01*
X242829396Y-108781180D01*
X242809120Y-108999999D01*
X236814622Y-108999999D01*
X236797794Y-108807668D01*
X236797792Y-108807658D01*
X236738343Y-108585788D01*
X236738339Y-108585779D01*
X236641261Y-108377594D01*
X236641260Y-108377592D01*
X236588215Y-108301836D01*
X236588215Y-108301835D01*
X236030972Y-108859078D01*
X236020719Y-108820811D01*
X235947151Y-108693389D01*
X235843111Y-108589349D01*
X235715689Y-108515781D01*
X235677420Y-108505527D01*
X236234663Y-107948283D01*
X236234663Y-107948282D01*
X236158908Y-107895239D01*
X236158906Y-107895238D01*
X235950720Y-107798160D01*
X235950711Y-107798156D01*
X235728841Y-107738707D01*
X235728831Y-107738705D01*
X235500001Y-107718685D01*
X235499999Y-107718685D01*
X235271168Y-107738705D01*
X235271158Y-107738707D01*
X235049288Y-107798156D01*
X235049279Y-107798160D01*
X234841090Y-107895240D01*
X234765335Y-107948282D01*
X235322579Y-108505526D01*
X235284311Y-108515781D01*
X235156889Y-108589349D01*
X235052849Y-108693389D01*
X234979281Y-108820811D01*
X234969026Y-108859079D01*
X234411782Y-108301835D01*
X234358740Y-108377590D01*
X234261660Y-108585779D01*
X234261656Y-108585788D01*
X234202207Y-108807658D01*
X234202205Y-108807668D01*
X234182185Y-109036499D01*
X225648351Y-109036499D01*
X213500000Y-105250000D01*
X186000000Y-105000000D01*
X185999999Y-105000000D01*
X185999998Y-105000000D01*
X179035645Y-111442028D01*
X178973065Y-111473101D01*
X178951444Y-111475000D01*
X173029162Y-111475000D01*
X172973893Y-111462001D01*
X161000001Y-105500000D01*
X161000000Y-105500000D01*
X131750000Y-105500000D01*
X127787230Y-110453462D01*
X127729979Y-110493514D01*
X127690402Y-110500000D01*
X120770610Y-110500000D01*
X120730496Y-110493332D01*
X119277455Y-109996566D01*
X91500000Y-100500000D01*
X77797483Y-100500000D01*
X77730444Y-100480315D01*
X77714662Y-100468286D01*
X75841179Y-98786955D01*
X75804433Y-98727529D01*
X75800000Y-98694669D01*
X75800000Y-94909435D01*
X75808100Y-94881849D01*
X75808100Y-94849994D01*
X90558100Y-94840300D01*
X90558100Y-94840301D01*
X120249999Y-107250000D01*
X120250000Y-107250000D01*
X124250000Y-107250000D01*
X125500000Y-106000000D01*
X125500000Y-97299790D01*
X125519685Y-97232751D01*
X125534431Y-97214038D01*
X127750000Y-94900000D01*
X142408100Y-94890300D01*
X172500000Y-107250000D01*
X172500001Y-107250000D01*
X175058487Y-107250000D01*
X175108921Y-107260719D01*
X175151601Y-107279722D01*
X175321336Y-107315800D01*
X175321337Y-107315800D01*
X175494862Y-107315800D01*
X175494864Y-107315800D01*
X175664599Y-107279722D01*
X175707278Y-107260719D01*
X175757713Y-107250000D01*
X175999999Y-107250000D01*
X176000000Y-107250000D01*
X177500000Y-105500000D01*
X177500000Y-97050467D01*
X177519685Y-96983428D01*
X177535239Y-96963880D01*
X179465250Y-94985618D01*
X179466010Y-94985190D01*
X179500027Y-94949999D01*
X194258100Y-94940300D01*
X234250000Y-107250000D01*
X246750000Y-107250000D01*
X248250000Y-105750000D01*
X248250000Y-100250000D01*
X248250000Y-98250000D01*
X248250000Y-97750000D01*
X248250000Y-96750000D01*
X248250000Y-96079999D01*
X251694934Y-96079999D01*
X251694934Y-96080000D01*
X251714760Y-96306617D01*
X251714762Y-96306627D01*
X251773636Y-96526351D01*
X251773640Y-96526360D01*
X251869780Y-96732533D01*
X251869782Y-96732537D01*
X251920901Y-96805543D01*
X251920902Y-96805543D01*
X252479396Y-96247049D01*
X252491116Y-96290787D01*
X252563011Y-96415313D01*
X252664687Y-96516989D01*
X252789213Y-96588884D01*
X252832949Y-96600603D01*
X252274455Y-97159096D01*
X252347469Y-97210221D01*
X252553639Y-97306359D01*
X252553648Y-97306363D01*
X252773372Y-97365237D01*
X252773382Y-97365239D01*
X252999999Y-97385066D01*
X253000001Y-97385066D01*
X253226617Y-97365239D01*
X253226627Y-97365237D01*
X253446351Y-97306363D01*
X253446360Y-97306359D01*
X253652532Y-97210220D01*
X253652536Y-97210218D01*
X253725543Y-97159097D01*
X253725543Y-97159096D01*
X253167050Y-96600603D01*
X253210787Y-96588884D01*
X253335313Y-96516989D01*
X253436989Y-96415313D01*
X253508884Y-96290787D01*
X253520603Y-96247050D01*
X254079096Y-96805543D01*
X254079097Y-96805543D01*
X254130218Y-96732536D01*
X254130220Y-96732532D01*
X254226359Y-96526360D01*
X254226363Y-96526351D01*
X254285237Y-96306627D01*
X254285239Y-96306617D01*
X254305066Y-96080000D01*
X254305066Y-96079999D01*
X254285239Y-95853382D01*
X254285237Y-95853372D01*
X254226363Y-95633648D01*
X254226359Y-95633639D01*
X254130221Y-95427469D01*
X254079096Y-95354455D01*
X253520602Y-95912948D01*
X253508884Y-95869213D01*
X253436989Y-95744687D01*
X253335313Y-95643011D01*
X253210787Y-95571116D01*
X253167049Y-95559396D01*
X253725543Y-95000902D01*
X253725543Y-95000901D01*
X253652537Y-94949782D01*
X253652533Y-94949780D01*
X253446360Y-94853640D01*
X253446351Y-94853636D01*
X253226627Y-94794762D01*
X253226617Y-94794760D01*
X253000001Y-94774934D01*
X252999999Y-94774934D01*
X252773382Y-94794760D01*
X252773372Y-94794762D01*
X252553648Y-94853636D01*
X252553639Y-94853640D01*
X252347463Y-94949782D01*
X252274456Y-95000901D01*
X252274455Y-95000902D01*
X252832950Y-95559396D01*
X252789213Y-95571116D01*
X252664687Y-95643011D01*
X252563011Y-95744687D01*
X252491116Y-95869213D01*
X252479396Y-95912949D01*
X251920902Y-95354455D01*
X251920901Y-95354456D01*
X251869782Y-95427463D01*
X251773640Y-95633639D01*
X251773636Y-95633648D01*
X251714762Y-95853372D01*
X251714760Y-95853382D01*
X251694934Y-96079999D01*
X248250000Y-96079999D01*
X248250000Y-94809597D01*
X248269685Y-94742558D01*
X248296536Y-94712771D01*
X249466035Y-93777172D01*
X249530681Y-93750664D01*
X249543497Y-93750000D01*
X253698638Y-93750000D01*
X253765677Y-93769685D01*
G37*
%TD.AperFunction*%
%TD*%
%TA.AperFunction,Conductor*%
%TO.N,+15V*%
G36*
X251515677Y-70769685D02*
G01*
X251536319Y-70786319D01*
X255213681Y-74463681D01*
X255247166Y-74525004D01*
X255250000Y-74551362D01*
X255250000Y-86698638D01*
X255230315Y-86765677D01*
X255213681Y-86786319D01*
X254036319Y-87963681D01*
X253974996Y-87997166D01*
X253948638Y-88000000D01*
X249801362Y-88000000D01*
X249734323Y-87980315D01*
X249713681Y-87963681D01*
X248286319Y-86536319D01*
X248252834Y-86474996D01*
X248250000Y-86448638D01*
X248250000Y-85919999D01*
X251694934Y-85919999D01*
X251694934Y-85920000D01*
X251714760Y-86146617D01*
X251714762Y-86146627D01*
X251773636Y-86366351D01*
X251773640Y-86366360D01*
X251869780Y-86572533D01*
X251869782Y-86572537D01*
X251920901Y-86645543D01*
X251920902Y-86645543D01*
X252479396Y-86087049D01*
X252491116Y-86130787D01*
X252563011Y-86255313D01*
X252664687Y-86356989D01*
X252789213Y-86428884D01*
X252832949Y-86440603D01*
X252274455Y-86999096D01*
X252347469Y-87050221D01*
X252553639Y-87146359D01*
X252553648Y-87146363D01*
X252773372Y-87205237D01*
X252773382Y-87205239D01*
X252999999Y-87225066D01*
X253000001Y-87225066D01*
X253226617Y-87205239D01*
X253226627Y-87205237D01*
X253446351Y-87146363D01*
X253446360Y-87146359D01*
X253652532Y-87050220D01*
X253652536Y-87050218D01*
X253725543Y-86999097D01*
X253725543Y-86999096D01*
X253167050Y-86440603D01*
X253210787Y-86428884D01*
X253335313Y-86356989D01*
X253436989Y-86255313D01*
X253508884Y-86130787D01*
X253520603Y-86087050D01*
X254079096Y-86645543D01*
X254079097Y-86645543D01*
X254130218Y-86572536D01*
X254130220Y-86572532D01*
X254226359Y-86366360D01*
X254226363Y-86366351D01*
X254285237Y-86146627D01*
X254285239Y-86146617D01*
X254305066Y-85920000D01*
X254305066Y-85919999D01*
X254285239Y-85693382D01*
X254285237Y-85693372D01*
X254226363Y-85473648D01*
X254226359Y-85473639D01*
X254130221Y-85267469D01*
X254079096Y-85194455D01*
X253520602Y-85752948D01*
X253508884Y-85709213D01*
X253436989Y-85584687D01*
X253335313Y-85483011D01*
X253210787Y-85411116D01*
X253167049Y-85399396D01*
X253725543Y-84840902D01*
X253725543Y-84840901D01*
X253652537Y-84789782D01*
X253652533Y-84789780D01*
X253446360Y-84693640D01*
X253446351Y-84693636D01*
X253226627Y-84634762D01*
X253226617Y-84634760D01*
X253000001Y-84614934D01*
X252999999Y-84614934D01*
X252773382Y-84634760D01*
X252773372Y-84634762D01*
X252553648Y-84693636D01*
X252553639Y-84693640D01*
X252347463Y-84789782D01*
X252274456Y-84840901D01*
X252274455Y-84840902D01*
X252832950Y-85399396D01*
X252789213Y-85411116D01*
X252664687Y-85483011D01*
X252563011Y-85584687D01*
X252491116Y-85709213D01*
X252479396Y-85752949D01*
X251920902Y-85194455D01*
X251920901Y-85194456D01*
X251869782Y-85267463D01*
X251773640Y-85473639D01*
X251773636Y-85473648D01*
X251714762Y-85693372D01*
X251714760Y-85693382D01*
X251694934Y-85919999D01*
X248250000Y-85919999D01*
X248250000Y-74750000D01*
X247500000Y-74000000D01*
X244669517Y-74000000D01*
X244602478Y-73980315D01*
X244556723Y-73927511D01*
X244546779Y-73858353D01*
X244575804Y-73794797D01*
X244604239Y-73770573D01*
X244643012Y-73746565D01*
X244073725Y-73177277D01*
X244166669Y-73152374D01*
X244265131Y-73095526D01*
X244345526Y-73015131D01*
X244402374Y-72916669D01*
X244427277Y-72823724D01*
X244998722Y-73395168D01*
X244998723Y-73395168D01*
X245012505Y-73376920D01*
X245012507Y-73376915D01*
X245110461Y-73180198D01*
X245170603Y-72968819D01*
X245190880Y-72750000D01*
X245190880Y-72749999D01*
X245170603Y-72531180D01*
X245110461Y-72319799D01*
X245110460Y-72319798D01*
X245012511Y-72123088D01*
X245012506Y-72123081D01*
X244998722Y-72104829D01*
X244427277Y-72676274D01*
X244402374Y-72583331D01*
X244345526Y-72484869D01*
X244265131Y-72404474D01*
X244166669Y-72347626D01*
X244073724Y-72322722D01*
X244643012Y-71753433D01*
X244643011Y-71753432D01*
X244530824Y-71683970D01*
X244530818Y-71683967D01*
X244325898Y-71604581D01*
X244109879Y-71564200D01*
X243890121Y-71564200D01*
X243674102Y-71604581D01*
X243674101Y-71604581D01*
X243469182Y-71683966D01*
X243356986Y-71753433D01*
X243926275Y-72322721D01*
X243833331Y-72347626D01*
X243734869Y-72404474D01*
X243654474Y-72484869D01*
X243597626Y-72583331D01*
X243572722Y-72676275D01*
X243001276Y-72104829D01*
X242987497Y-72123075D01*
X242987489Y-72123088D01*
X242889538Y-72319801D01*
X242829396Y-72531180D01*
X242809120Y-72749999D01*
X242809120Y-72750000D01*
X242829396Y-72968819D01*
X242889538Y-73180200D01*
X242889539Y-73180201D01*
X242987487Y-73376908D01*
X242987494Y-73376920D01*
X243001275Y-73395168D01*
X243572721Y-72823723D01*
X243597626Y-72916669D01*
X243654474Y-73015131D01*
X243734869Y-73095526D01*
X243833331Y-73152374D01*
X243926274Y-73177277D01*
X243356986Y-73746565D01*
X243395760Y-73770573D01*
X243442396Y-73822601D01*
X243453500Y-73891582D01*
X243425547Y-73955617D01*
X243367412Y-73994373D01*
X243330483Y-74000000D01*
X237999999Y-74000000D01*
X236506164Y-75464545D01*
X236444512Y-75497421D01*
X236419355Y-75500000D01*
X234521609Y-75500000D01*
X234454570Y-75480315D01*
X234433631Y-75463384D01*
X233000000Y-74020000D01*
X232999999Y-74020000D01*
X221999999Y-74050000D01*
X217908100Y-78790299D01*
X217908100Y-78790300D01*
X214758100Y-78790300D01*
X214208100Y-78590300D01*
X206209700Y-78590300D01*
X206900000Y-77900000D01*
X206900000Y-75100000D01*
X206000000Y-74250000D01*
X170000000Y-74200000D01*
X167801178Y-76798607D01*
X167798790Y-76801347D01*
X166228399Y-78550604D01*
X166058100Y-78740300D01*
X162908100Y-78740300D01*
X162358100Y-78540300D01*
X153959700Y-78540300D01*
X154500000Y-78000000D01*
X154500000Y-74750000D01*
X153750000Y-74000000D01*
X118800000Y-74000000D01*
X114208100Y-78690300D01*
X111058100Y-78690300D01*
X110508100Y-78490300D01*
X102379850Y-78490300D01*
X102625001Y-77999999D01*
X103876290Y-75497421D01*
X103884843Y-75480315D01*
X103892728Y-75464545D01*
X104593601Y-74062799D01*
X104627814Y-73994373D01*
X104634843Y-73980315D01*
X104647192Y-73955617D01*
X104661245Y-73927511D01*
X104695824Y-73858353D01*
X104789911Y-73670179D01*
X105034900Y-73180201D01*
X105140591Y-72968819D01*
X105465100Y-72319801D01*
X105465101Y-72319799D01*
X105563460Y-72123081D01*
X105563463Y-72123075D01*
X105572586Y-72104829D01*
X105680323Y-71889355D01*
X234187200Y-71889355D01*
X234187200Y-72500000D01*
X234999091Y-72500000D01*
X234979281Y-72534311D01*
X234941200Y-72676433D01*
X234941200Y-72823567D01*
X234979281Y-72965689D01*
X234999091Y-73000000D01*
X234187200Y-73000000D01*
X234187200Y-73610644D01*
X234193601Y-73670172D01*
X234193603Y-73670179D01*
X234243845Y-73804886D01*
X234243849Y-73804893D01*
X234330009Y-73919987D01*
X234330012Y-73919990D01*
X234445106Y-74006150D01*
X234445113Y-74006154D01*
X234579820Y-74056396D01*
X234579827Y-74056398D01*
X234639355Y-74062799D01*
X234639372Y-74062800D01*
X235250000Y-74062800D01*
X235250000Y-73250909D01*
X235284311Y-73270719D01*
X235426433Y-73308800D01*
X235573567Y-73308800D01*
X235715689Y-73270719D01*
X235750000Y-73250909D01*
X235750000Y-74062800D01*
X236360628Y-74062800D01*
X236360644Y-74062799D01*
X236420172Y-74056398D01*
X236420179Y-74056396D01*
X236554886Y-74006154D01*
X236554893Y-74006150D01*
X236669987Y-73919990D01*
X236669990Y-73919987D01*
X236756150Y-73804893D01*
X236756154Y-73804886D01*
X236806396Y-73670179D01*
X236806398Y-73670172D01*
X236812799Y-73610644D01*
X236812800Y-73610627D01*
X236812800Y-73000000D01*
X236000909Y-73000000D01*
X236020719Y-72965689D01*
X236058800Y-72823567D01*
X236058800Y-72676433D01*
X236020719Y-72534311D01*
X236000909Y-72500000D01*
X236812800Y-72500000D01*
X236812800Y-71889372D01*
X236812799Y-71889355D01*
X236806398Y-71829827D01*
X236806396Y-71829820D01*
X236756154Y-71695113D01*
X236756150Y-71695106D01*
X236669990Y-71580012D01*
X236669987Y-71580009D01*
X236554893Y-71493849D01*
X236554886Y-71493845D01*
X236420179Y-71443603D01*
X236420172Y-71443601D01*
X236360644Y-71437200D01*
X235750000Y-71437200D01*
X235750000Y-72249090D01*
X235715689Y-72229281D01*
X235573567Y-72191200D01*
X235426433Y-72191200D01*
X235284311Y-72229281D01*
X235250000Y-72249090D01*
X235250000Y-71437200D01*
X234639355Y-71437200D01*
X234579827Y-71443601D01*
X234579820Y-71443603D01*
X234445113Y-71493845D01*
X234445106Y-71493849D01*
X234330012Y-71580009D01*
X234330009Y-71580012D01*
X234243849Y-71695106D01*
X234243845Y-71695113D01*
X234193603Y-71829820D01*
X234193601Y-71829827D01*
X234187200Y-71889355D01*
X105680323Y-71889355D01*
X105715727Y-71818546D01*
X105763314Y-71767387D01*
X105826636Y-71750000D01*
X232250000Y-71750000D01*
X232962800Y-70799600D01*
X233018771Y-70757779D01*
X233062000Y-70750000D01*
X251448638Y-70750000D01*
X251515677Y-70769685D01*
G37*
%TD.AperFunction*%
%TD*%
%TA.AperFunction,Conductor*%
%TO.N,-15V*%
G36*
X134773777Y-77909985D02*
G01*
X134794419Y-77926619D01*
X134971781Y-78103981D01*
X135005266Y-78165304D01*
X135008100Y-78191662D01*
X135008100Y-78588938D01*
X134988415Y-78655977D01*
X134971781Y-78676619D01*
X134794419Y-78853981D01*
X134733096Y-78887466D01*
X134706738Y-78890300D01*
X131858100Y-78890300D01*
X131115243Y-79490300D01*
X129258099Y-80990300D01*
X129277490Y-87120541D01*
X129277491Y-87120542D01*
X129550748Y-87340493D01*
X131465547Y-87340304D01*
X131532588Y-87359982D01*
X131541688Y-87366424D01*
X131910229Y-87653067D01*
X131951061Y-87709764D01*
X131958100Y-87750947D01*
X131958100Y-88488938D01*
X131938415Y-88555977D01*
X131921781Y-88576619D01*
X131544419Y-88953981D01*
X131483096Y-88987466D01*
X131456738Y-88990300D01*
X129108100Y-88990300D01*
X128921433Y-89153632D01*
X128708100Y-89340299D01*
X128708100Y-89340300D01*
X128708100Y-94040300D01*
X129258100Y-94590300D01*
X140358098Y-94590300D01*
X140358100Y-94590300D01*
X141008100Y-93990300D01*
X141008100Y-90492857D01*
X141027785Y-90425818D01*
X141045868Y-90403751D01*
X143464613Y-88063016D01*
X143464638Y-88062992D01*
X144608100Y-86890300D01*
X145257851Y-85992589D01*
X147808100Y-81240300D01*
X147808100Y-80811863D01*
X147827785Y-80744824D01*
X147880589Y-80699069D01*
X147949747Y-80689125D01*
X148008263Y-80714010D01*
X148139749Y-80816350D01*
X148343797Y-80926776D01*
X148343806Y-80926779D01*
X148563239Y-81002111D01*
X148658099Y-81017940D01*
X148658100Y-81017939D01*
X148658100Y-80131047D01*
X148695808Y-80152818D01*
X148835691Y-80190300D01*
X148980509Y-80190300D01*
X149120392Y-80152818D01*
X149158100Y-80131047D01*
X149158100Y-81017940D01*
X149252960Y-81002111D01*
X149472393Y-80926779D01*
X149472402Y-80926776D01*
X149676450Y-80816350D01*
X149807937Y-80714010D01*
X149872931Y-80688367D01*
X149941471Y-80701933D01*
X149991796Y-80750402D01*
X150008100Y-80811863D01*
X150008100Y-86438938D01*
X149988415Y-86505977D01*
X149971781Y-86526619D01*
X149844419Y-86653981D01*
X149783096Y-86687466D01*
X149756738Y-86690300D01*
X146258100Y-86690300D01*
X145808100Y-87040300D01*
X145808100Y-91766300D01*
X145788415Y-91833339D01*
X145735611Y-91879094D01*
X145684100Y-91890300D01*
X145382100Y-91890300D01*
X145315061Y-91870615D01*
X145269306Y-91817811D01*
X145258100Y-91766300D01*
X145258100Y-90140300D01*
X144908100Y-89790300D01*
X143708100Y-89790300D01*
X143294464Y-90140300D01*
X142408100Y-90890299D01*
X142408100Y-94890299D01*
X142408100Y-94890300D01*
X127750000Y-94900000D01*
X127658100Y-94995984D01*
X127658100Y-81040300D01*
X127658100Y-79548954D01*
X127677785Y-79481915D01*
X127703442Y-79453096D01*
X129272939Y-78165304D01*
X129573806Y-77918439D01*
X129638118Y-77891132D01*
X129652461Y-77890300D01*
X134706738Y-77890300D01*
X134773777Y-77909985D01*
G37*
%TD.AperFunction*%
%TD*%
M02*
