%TF.GenerationSoftware,KiCad,Pcbnew,8.0.2*%
%TF.CreationDate,2025-05-03T05:30:05-04:00*%
%TF.ProjectId,piezo_nanopositioner_v1,7069657a-6f5f-46e6-916e-6f706f736974,rev?*%
%TF.SameCoordinates,Original*%
%TF.FileFunction,Paste,Top*%
%TF.FilePolarity,Positive*%
%FSLAX46Y46*%
G04 Gerber Fmt 4.6, Leading zero omitted, Abs format (unit mm)*
G04 Created by KiCad (PCBNEW 8.0.2) date 2025-05-03 05:30:05*
%MOMM*%
%LPD*%
G01*
G04 APERTURE LIST*
G04 Aperture macros list*
%AMRoundRect*
0 Rectangle with rounded corners*
0 $1 Rounding radius*
0 $2 $3 $4 $5 $6 $7 $8 $9 X,Y pos of 4 corners*
0 Add a 4 corners polygon primitive as box body*
4,1,4,$2,$3,$4,$5,$6,$7,$8,$9,$2,$3,0*
0 Add four circle primitives for the rounded corners*
1,1,$1+$1,$2,$3*
1,1,$1+$1,$4,$5*
1,1,$1+$1,$6,$7*
1,1,$1+$1,$8,$9*
0 Add four rect primitives between the rounded corners*
20,1,$1+$1,$2,$3,$4,$5,0*
20,1,$1+$1,$4,$5,$6,$7,0*
20,1,$1+$1,$6,$7,$8,$9,0*
20,1,$1+$1,$8,$9,$2,$3,0*%
G04 Aperture macros list end*
%ADD10RoundRect,0.250000X0.450000X-0.262500X0.450000X0.262500X-0.450000X0.262500X-0.450000X-0.262500X0*%
%ADD11RoundRect,0.250000X0.475000X-0.250000X0.475000X0.250000X-0.475000X0.250000X-0.475000X-0.250000X0*%
%ADD12RoundRect,0.250000X-0.475000X0.250000X-0.475000X-0.250000X0.475000X-0.250000X0.475000X0.250000X0*%
%ADD13R,0.558800X1.447800*%
%ADD14R,1.500000X0.599999*%
%ADD15RoundRect,0.250000X-0.450000X0.262500X-0.450000X-0.262500X0.450000X-0.262500X0.450000X0.262500X0*%
%ADD16R,3.810000X1.168400*%
%ADD17R,3.606800X1.803400*%
%ADD18RoundRect,0.250000X0.250000X0.475000X-0.250000X0.475000X-0.250000X-0.475000X0.250000X-0.475000X0*%
%ADD19RoundRect,0.250000X-0.262500X-0.450000X0.262500X-0.450000X0.262500X0.450000X-0.262500X0.450000X0*%
G04 APERTURE END LIST*
D10*
%TO.C,R203*%
X93020000Y-101590000D03*
X93020000Y-99765000D03*
%TD*%
D11*
%TO.C,C407*%
X188570000Y-80340000D03*
X188570000Y-78440000D03*
%TD*%
D12*
%TO.C,C203*%
X95170000Y-86140000D03*
X95170000Y-88040000D03*
%TD*%
%TO.C,C404*%
X207870000Y-86240000D03*
X207870000Y-88140000D03*
%TD*%
%TO.C,C403*%
X198870000Y-86240000D03*
X198870000Y-88140000D03*
%TD*%
D10*
%TO.C,R402*%
X194220000Y-101690000D03*
X194220000Y-99865000D03*
%TD*%
%TO.C,R207*%
X103020000Y-101590000D03*
X103020000Y-99765000D03*
%TD*%
D13*
%TO.C,U202*%
X101290000Y-91129000D03*
X100020000Y-91129000D03*
X98750000Y-91129000D03*
X97480000Y-91129000D03*
X96210000Y-91129000D03*
X94940000Y-91129000D03*
X93670000Y-91129000D03*
X92400000Y-91129000D03*
X92400000Y-96590000D03*
X93670000Y-96590000D03*
X94940000Y-96590000D03*
X96210000Y-96590000D03*
X97480000Y-96590000D03*
X98750000Y-96590000D03*
X100020000Y-96590000D03*
X101290000Y-96590000D03*
%TD*%
D11*
%TO.C,C207*%
X84870000Y-80240000D03*
X84870000Y-78340000D03*
%TD*%
D14*
%TO.C,U401*%
X220370000Y-99839999D03*
X220370000Y-97940000D03*
X218470001Y-98889998D03*
%TD*%
D15*
%TO.C,R209*%
X118920001Y-97877498D03*
X118920001Y-99702498D03*
%TD*%
D10*
%TO.C,R302*%
X142370000Y-101640000D03*
X142370000Y-99815000D03*
%TD*%
D16*
%TO.C,C401*%
X217617200Y-106490000D03*
X224322800Y-106490000D03*
%TD*%
D11*
%TO.C,C408*%
X186120000Y-80340000D03*
X186120000Y-78440000D03*
%TD*%
D12*
%TO.C,C303*%
X147020000Y-86190000D03*
X147020000Y-88090000D03*
%TD*%
D10*
%TO.C,R407*%
X206720000Y-101690000D03*
X206720000Y-99865000D03*
%TD*%
D11*
%TO.C,C209*%
X106370000Y-88040000D03*
X106370000Y-86140000D03*
%TD*%
D10*
%TO.C,R308*%
X157370000Y-101640000D03*
X157370000Y-99815000D03*
%TD*%
%TO.C,R304*%
X147370000Y-101640000D03*
X147370000Y-99815000D03*
%TD*%
D17*
%TO.C,C306*%
X164714700Y-79640000D03*
X173325300Y-79640000D03*
%TD*%
D10*
%TO.C,R202*%
X90520000Y-101590000D03*
X90520000Y-99765000D03*
%TD*%
D18*
%TO.C,C410*%
X210908100Y-50690300D03*
X209008100Y-50690300D03*
%TD*%
%TO.C,C210*%
X107208100Y-50590300D03*
X105308100Y-50590300D03*
%TD*%
D11*
%TO.C,C202*%
X97420000Y-88040000D03*
X97420000Y-86140000D03*
%TD*%
D10*
%TO.C,R303*%
X144870000Y-101640000D03*
X144870000Y-99815000D03*
%TD*%
%TO.C,R312*%
X139220000Y-80252500D03*
X139220000Y-78427500D03*
%TD*%
%TO.C,R401*%
X191720000Y-101690000D03*
X191720000Y-99865000D03*
%TD*%
%TO.C,R301*%
X139870000Y-101640000D03*
X139870000Y-99815000D03*
%TD*%
D11*
%TO.C,C309*%
X158220000Y-88090000D03*
X158220000Y-86190000D03*
%TD*%
D10*
%TO.C,R405*%
X201720000Y-101690000D03*
X201720000Y-99865000D03*
%TD*%
%TO.C,R212*%
X87370000Y-80202500D03*
X87370000Y-78377500D03*
%TD*%
D14*
%TO.C,U301*%
X168520000Y-99789999D03*
X168520000Y-97890000D03*
X166620001Y-98839998D03*
%TD*%
D16*
%TO.C,C301*%
X165767200Y-106440000D03*
X172472800Y-106440000D03*
%TD*%
D10*
%TO.C,R307*%
X154870000Y-101640000D03*
X154870000Y-99815000D03*
%TD*%
D17*
%TO.C,C206*%
X112864700Y-79590000D03*
X121475300Y-79590000D03*
%TD*%
D11*
%TO.C,C308*%
X134270000Y-80290000D03*
X134270000Y-78390000D03*
%TD*%
D10*
%TO.C,R404*%
X199220000Y-101690000D03*
X199220000Y-99865000D03*
%TD*%
D13*
%TO.C,U402*%
X204990000Y-91229000D03*
X203720000Y-91229000D03*
X202450000Y-91229000D03*
X201180000Y-91229000D03*
X199910000Y-91229000D03*
X198640000Y-91229000D03*
X197370000Y-91229000D03*
X196100000Y-91229000D03*
X196100000Y-96690000D03*
X197370000Y-96690000D03*
X198640000Y-96690000D03*
X199910000Y-96690000D03*
X201180000Y-96690000D03*
X202450000Y-96690000D03*
X203720000Y-96690000D03*
X204990000Y-96690000D03*
%TD*%
D16*
%TO.C,C201*%
X113917200Y-106390000D03*
X120622800Y-106390000D03*
%TD*%
D10*
%TO.C,R204*%
X95520000Y-101590000D03*
X95520000Y-99765000D03*
%TD*%
%TO.C,R306*%
X152370000Y-101640000D03*
X152370000Y-99815000D03*
%TD*%
%TO.C,R403*%
X196720000Y-101690000D03*
X196720000Y-99865000D03*
%TD*%
D11*
%TO.C,C208*%
X82420000Y-80240000D03*
X82420000Y-78340000D03*
%TD*%
D10*
%TO.C,R201*%
X88020000Y-101590000D03*
X88020000Y-99765000D03*
%TD*%
D15*
%TO.C,R309*%
X170770001Y-97927498D03*
X170770001Y-99752498D03*
%TD*%
D14*
%TO.C,U201*%
X116670000Y-99739999D03*
X116670000Y-97840000D03*
X114770001Y-98789998D03*
%TD*%
D10*
%TO.C,R406*%
X204220000Y-101690000D03*
X204220000Y-99865000D03*
%TD*%
D11*
%TO.C,C402*%
X201120000Y-88140000D03*
X201120000Y-86240000D03*
%TD*%
D10*
%TO.C,R408*%
X209220000Y-101690000D03*
X209220000Y-99865000D03*
%TD*%
D11*
%TO.C,C307*%
X136720000Y-80290000D03*
X136720000Y-78390000D03*
%TD*%
D19*
%TO.C,R313*%
X157195600Y-48140300D03*
X159020600Y-48140300D03*
%TD*%
D10*
%TO.C,R410*%
X203370000Y-88102500D03*
X203370000Y-86277500D03*
%TD*%
%TO.C,R206*%
X100520000Y-101590000D03*
X100520000Y-99765000D03*
%TD*%
D15*
%TO.C,R409*%
X222620001Y-97977498D03*
X222620001Y-99802498D03*
%TD*%
D10*
%TO.C,R305*%
X149870000Y-101640000D03*
X149870000Y-99815000D03*
%TD*%
D13*
%TO.C,U302*%
X153140000Y-91179000D03*
X151870000Y-91179000D03*
X150600000Y-91179000D03*
X149330000Y-91179000D03*
X148060000Y-91179000D03*
X146790000Y-91179000D03*
X145520000Y-91179000D03*
X144250000Y-91179000D03*
X144250000Y-96640000D03*
X145520000Y-96640000D03*
X146790000Y-96640000D03*
X148060000Y-96640000D03*
X149330000Y-96640000D03*
X150600000Y-96640000D03*
X151870000Y-96640000D03*
X153140000Y-96640000D03*
%TD*%
D17*
%TO.C,C405*%
X190644050Y-88140000D03*
X182033450Y-88140000D03*
%TD*%
D19*
%TO.C,R413*%
X209045600Y-48190300D03*
X210870600Y-48190300D03*
%TD*%
D10*
%TO.C,R311*%
X153770000Y-88052500D03*
X153770000Y-86227500D03*
%TD*%
D18*
%TO.C,C310*%
X159058100Y-50640300D03*
X157158100Y-50640300D03*
%TD*%
D10*
%TO.C,R208*%
X105520000Y-101590000D03*
X105520000Y-99765000D03*
%TD*%
D12*
%TO.C,C304*%
X156020000Y-86190000D03*
X156020000Y-88090000D03*
%TD*%
D10*
%TO.C,R211*%
X101920000Y-88002500D03*
X101920000Y-86177500D03*
%TD*%
D12*
%TO.C,C204*%
X104170000Y-86140000D03*
X104170000Y-88040000D03*
%TD*%
D10*
%TO.C,R210*%
X99670000Y-88002500D03*
X99670000Y-86177500D03*
%TD*%
D11*
%TO.C,C409*%
X210070000Y-88140000D03*
X210070000Y-86240000D03*
%TD*%
D10*
%TO.C,R310*%
X151520000Y-88052500D03*
X151520000Y-86227500D03*
%TD*%
D19*
%TO.C,R213*%
X105345600Y-48090300D03*
X107170600Y-48090300D03*
%TD*%
D10*
%TO.C,R205*%
X98020000Y-101590000D03*
X98020000Y-99765000D03*
%TD*%
D11*
%TO.C,C302*%
X149270000Y-88090000D03*
X149270000Y-86190000D03*
%TD*%
D17*
%TO.C,C305*%
X138794050Y-88090000D03*
X130183450Y-88090000D03*
%TD*%
D10*
%TO.C,R411*%
X205620000Y-88102500D03*
X205620000Y-86277500D03*
%TD*%
D17*
%TO.C,C406*%
X216564700Y-79690000D03*
X225175300Y-79690000D03*
%TD*%
%TO.C,C205*%
X86944050Y-88040000D03*
X78333450Y-88040000D03*
%TD*%
D10*
%TO.C,R412*%
X191070000Y-80302500D03*
X191070000Y-78477500D03*
%TD*%
M02*
