M48
; DRILL file {KiCad 8.0.2} date 2025-05-03T05:30:15-0400
; FORMAT={-:-/ absolute / inch / decimal}
; #@! TF.CreationDate,2025-05-03T05:30:15-04:00
; #@! TF.GenerationSoftware,Kicad,Pcbnew,8.0.2
; #@! TF.FileFunction,Plated,1,4,PTH
FMAT,2
INCH
; #@! TA.AperFunction,Plated,PTH,ViaDrill
T1C0.0098
; #@! TA.AperFunction,Plated,PTH,ViaDrill
T2C0.0118
; #@! TA.AperFunction,Plated,PTH,ComponentDrill
T3C0.0197
; #@! TA.AperFunction,Plated,PTH,ComponentDrill
T4C0.0299
; #@! TA.AperFunction,Plated,PTH,ComponentDrill
T5C0.0340
; #@! TA.AperFunction,Plated,PTH,ComponentDrill
T6C0.0394
; #@! TA.AperFunction,Plated,PTH,ComponentDrill
T7C0.0430
; #@! TA.AperFunction,Plated,PTH,ComponentDrill
T8C0.0433
; #@! TA.AperFunction,Plated,PTH,ComponentDrill
T9C0.0440
; #@! TA.AperFunction,Plated,PTH,ComponentDrill
T10C0.0550
; #@! TA.AperFunction,Plated,PTH,ComponentDrill
T11C0.0590
; #@! TA.AperFunction,Plated,PTH,ComponentDrill
T12C0.1260
%
G90
G05
T1
X2.9984Y-3.4662
X3.1873Y-3.1591
X3.1913Y-3.0862
X3.3586Y-4.3756
X3.5082Y-3.3854
X3.6775Y-3.5154
X3.6862Y-3.2228
X3.7365Y-3.5173
X3.7464Y-3.3421
X3.7877Y-3.5331
X3.8228Y-3.2181
X3.835Y-3.3421
X3.9235Y-3.3461
X4.0239Y-3.5606
X4.0504Y-3.1327
X4.1007Y-3.5055
X4.144Y-2.0567
X4.2385Y-3.4662
X4.2602Y-4.3795
X4.3487Y-3.1906
X4.4728Y-3.85
X4.7122Y-3.6626
X4.7208Y-3.8146
X4.8496Y-4.1394
X4.8842Y-3.1335
X5.0397Y-3.4681
X5.2287Y-3.161
X5.2326Y-3.0882
X5.3999Y-4.3776
X5.5495Y-3.3874
X5.7188Y-3.5173
X5.7283Y-3.2256
X5.7779Y-3.5193
X5.7877Y-3.3441
X5.8291Y-3.5351
X5.8622Y-3.2165
X5.8763Y-3.3441
X5.9649Y-3.348
X6.0653Y-3.5626
X6.0878Y-3.1343
X6.1421Y-3.5075
X6.1854Y-2.0587
X6.2798Y-3.4681
X6.3015Y-4.3815
X6.3901Y-3.1925
X6.5141Y-3.852
X6.7543Y-3.6433
X6.7621Y-3.8165
X6.9058Y-4.1925
X6.9255Y-3.1354
X7.081Y-3.4701
X7.27Y-3.163
X7.2739Y-3.0902
X7.4413Y-4.3795
X7.5909Y-3.3894
X7.7602Y-3.5193
X7.7685Y-3.2311
X7.8192Y-3.5213
X7.8291Y-3.3461
X7.8704Y-3.537
X7.9039Y-3.2217
X7.9176Y-3.3461
X8.0062Y-3.35
X8.1066Y-3.5646
X8.1386Y-3.1374
X8.1834Y-3.5095
X8.2267Y-2.0606
X8.3212Y-3.4701
X8.3428Y-4.3835
X8.4314Y-3.1945
X8.5554Y-3.8539
X8.7956Y-3.6453
X8.8035Y-3.8185
X8.9669Y-3.1374
X9.0217Y-4.0909
T2
X4.1027Y-3.348
X4.1583Y-3.3437
X6.144Y-3.35
X6.2287Y-3.35
X8.1854Y-3.352
X8.27Y-3.352
T3
X2.8681Y-1.9094
X2.8681Y-4.3602
X2.8958Y-1.8426
X2.8958Y-1.9763
X2.8958Y-4.2934
X2.8958Y-4.427
X2.9626Y-1.815
X2.9626Y-2.0039
X2.9626Y-4.2657
X2.9626Y-4.4547
X3.0294Y-1.8426
X3.0294Y-1.9763
X3.0294Y-4.2934
X3.0294Y-4.427
X3.0571Y-1.9094
X3.0571Y-4.3602
X4.815Y-1.937
X4.8426Y-1.8702
X4.8426Y-2.0038
X4.9094Y-1.8425
X4.9094Y-2.0315
X4.9763Y-1.8702
X4.9763Y-2.0038
X5.0039Y-1.937
X6.8543Y-1.937
X6.882Y-1.8702
X6.882Y-2.0038
X6.9488Y-1.8425
X6.9488Y-2.0315
X7.0156Y-1.8702
X7.0156Y-2.0038
X7.0433Y-1.937
X9.8465Y-1.9094
X9.8465Y-4.3602
X9.8741Y-1.8426
X9.8741Y-1.9763
X9.8741Y-4.2934
X9.8741Y-4.427
X9.9409Y-1.815
X9.9409Y-2.0039
X9.9409Y-4.2657
X9.9409Y-4.4547
X10.0078Y-1.8426
X10.0078Y-1.9763
X10.0078Y-4.2934
X10.0078Y-4.427
X10.0354Y-1.9094
X10.0354Y-4.3602
T4
X4.513Y-3.5862
X4.613Y-3.5862
X4.713Y-3.5862
X6.5543Y-3.5882
X6.6543Y-3.5882
X6.7543Y-3.5882
X8.5957Y-3.5902
X8.6957Y-3.5902
X8.7957Y-3.5902
T5
X9.6063Y-2.8642
X9.6063Y-3.002
X9.6063Y-4.1535
X9.6063Y-4.2913
T6
X3.36Y-4.2821
X3.46Y-4.2821
X3.56Y-4.2821
X3.66Y-4.2821
X3.76Y-4.2821
X3.86Y-4.2821
X3.96Y-4.2821
X4.06Y-4.2821
X4.16Y-4.2821
X4.26Y-4.2821
X5.4014Y-4.2841
X5.5014Y-4.2841
X5.6014Y-4.2841
X5.7014Y-4.2841
X5.8014Y-4.2841
X5.9014Y-4.2841
X6.0014Y-4.2841
X6.1014Y-4.2841
X6.2014Y-4.2841
X6.3014Y-4.2841
X7.4427Y-4.286
X7.5427Y-4.286
X7.6427Y-4.286
X7.7427Y-4.286
X7.8427Y-4.286
X7.9427Y-4.286
X8.0427Y-4.286
X8.1427Y-4.286
X8.2427Y-4.286
X8.3427Y-4.286
T7
X9.9606Y-3.3827
X9.9606Y-3.5827
X9.9606Y-3.7827
T8
X3.6873Y-3.1335
X3.7543Y-2.9878
X3.8212Y-3.1335
X3.8881Y-2.9878
X3.955Y-3.1335
X5.7287Y-3.1354
X5.7956Y-2.9898
X5.8625Y-3.1354
X5.9295Y-2.9898
X5.9964Y-3.1354
X7.77Y-3.1374
X7.8369Y-2.9917
X7.9039Y-3.1374
X7.9708Y-2.9917
X8.0377Y-3.1374
T9
X9.2717Y-2.8642
X9.2717Y-3.3042
X9.2717Y-3.8528
X9.2717Y-4.2928
T10
X3.7876Y-1.8361
X3.7876Y-2.0371
X3.9886Y-1.8361
X3.9886Y-2.0371
X5.829Y-1.8361
X5.829Y-2.0371
X6.03Y-1.8361
X6.03Y-2.0371
X7.8703Y-1.8361
X7.8703Y-2.0371
X8.0713Y-1.8361
X8.0713Y-2.0371
T11
X3.8881Y-1.9366
X5.9295Y-1.9366
X7.9708Y-1.9366
T12
X2.9626Y-1.9094
X2.9626Y-4.3602
X4.9094Y-1.937
X6.9488Y-1.937
X9.9409Y-1.9094
X9.9409Y-4.3602
M30
